<?xml version="1.0" encoding="UTF-8" standalone="no"?>
<!-- Created with Inkscape (http://www.inkscape.org/) -->

<svg
   width="210mm"
   height="297mm"
   viewBox="0 0 210 297"
   version="1.1"
   id="svg1"
   xml:space="preserve"
   inkscape:version="1.4.2 (f4327f4, 2025-05-13)"
   sodipodi:docname="default_pose.svg"
   xmlns:inkscape="http://www.inkscape.org/namespaces/inkscape"
   xmlns:sodipodi="http://sodipodi.sourceforge.net/DTD/sodipodi-0.dtd"
   xmlns="http://www.w3.org/2000/svg"
   xmlns:svg="http://www.w3.org/2000/svg"><sodipodi:namedview
     id="namedview1"
     pagecolor="#ffffff"
     bordercolor="#000000"
     borderopacity="0.25"
     inkscape:showpageshadow="2"
     inkscape:pageopacity="0.0"
     inkscape:pagecheckerboard="0"
     inkscape:deskcolor="#d1d1d1"
     inkscape:document-units="mm"
     showguides="false"
     inkscape:zoom="0.50835204"
     inkscape:cx="407.19813"
     inkscape:cy="638.33716"
     inkscape:window-width="1920"
     inkscape:window-height="1009"
     inkscape:window-x="-8"
     inkscape:window-y="-8"
     inkscape:window-maximized="1"
     inkscape:current-layer="layer1" /><defs
     id="defs1" /><g
     inkscape:label="Layer 1"
     inkscape:groupmode="layer"
     id="layer1" /><g
     inkscape:groupmode="layer"
     id="layer2"
     inkscape:label="Mascota real"><path
       style="fill:#000000;stroke-width:2.2709"
       d="M 82.622587,205.13326 82.31816,204.33994 58.006859,128.4576 33.69556,52.57527 V 48.437453 44.29966 H 97.384988 161.0744 v 4.042893 4.042891 l -30.48392,76.770586 -30.4839,76.77056 H 91.516778 82.92703 Z M 118.63713,121.38531 140.64572,63.581561 V 63.253688 62.925815 H 99.724087 58.802426 l 0.324645,0.846006 0.324642,0.846005 18.187376,57.734414 18.187372,57.73441 0.401043,-0.44879 0.401021,-0.44878 z"
       id="path2" /><path
       d="m 175.19489,130.54168 0.43138,-0.27552 0.43142,-0.27555 v -0.70199 -0.702 l 0.31998,-1.16296 0.31999,-1.16297 0.54192,-0.80015 0.54187,-0.80016 0.67758,-0.5585 0.67755,-0.55852 0.19529,-1.2126 0.19531,-1.2126 0.3765,-1.07164 0.37647,-1.07163 0.85223,-1.46708 0.85225,-1.4671 0.41288,-1.21715 0.41289,-1.21714 -0.0997,-1.7256 -0.0997,-1.72557 -0.49737,-1.61816 -0.49735,-1.61812 -0.26026,-1.50713 -0.26027,-1.50713 0.16143,-0.86429 0.16143,-0.8643 0.31629,-0.66656 0.31631,-0.66658 0.64206,-0.52923 0.64202,-0.529245 0.97776,-0.351568 0.9778,-0.351603 1.27908,0.09545 1.2791,0.09545 1.11319,0.531895 1.11316,0.531911 0.83418,0.8107 0.83415,0.81072 0.4974,0.78793 0.4974,0.78792 0.48788,1.45338 0.48787,1.45337 -0.005,1.76168 -0.005,1.76168 -0.10991,0.47932 -0.10991,0.47933 -0.11486,1.1343 -0.11485,1.1343 0.2946,-0.11309 0.29457,-0.11309 1.31672,-0.42036 1.31669,-0.42033 2.50532,-0.0974 2.5053,-0.0974 1.13759,0.32835 1.13761,0.32835 0.93265,0.50477 0.93257,0.50478 0.64511,0.78729 0.64509,0.78723 0.31722,0.75214 0.31723,0.75215 0.008,1.24624 0.008,1.24626 -0.38617,0.86281 -0.38622,0.86279 0.54759,0.75423 0.54758,0.75426 0.30748,1.05764 0.30746,1.05769 -0.10424,1.52134 -0.10425,1.52137 -0.66367,1.36415 -0.6637,1.36415 0.097,1.22353 0.097,1.22354 -0.23309,1.07725 -0.23311,1.07725 -0.69831,1.43797 -0.6983,1.438 -1.26142,1.24625 -1.26141,1.24625 -0.94769,0.51282 -0.94768,0.5128 -1.45932,0.4896 -1.45932,0.48959 -1.99185,0.30143 -1.99184,0.30142 -1.43799,-0.12279 -1.43798,-0.1228 -1.15039,-0.28054 -1.15038,-0.28056 -0.78146,-0.29054 -0.78147,-0.29056 -1.23171,0.4164 -1.23174,0.41644 -0.93656,-0.10938 -0.9366,-0.10939 -1.19327,-0.55839 -1.19327,-0.55841 -0.93783,-0.90454 -0.93788,-0.90455 -1.43796,0.16285 -1.438,0.16284 m 19.53057,0.16513 0.88953,-0.12191 v -0.16585 -0.16548 h -0.49774 -0.49775 l -1.08402,-0.31214 -1.08404,-0.31213 -0.8628,-0.43988 -0.86279,-0.43986 -0.73183,-0.72032 -0.73181,-0.72029 -0.31325,-0.58881 -0.31329,-0.58878 -0.007,-1.45276 -0.007,-1.45274 0.30595,-0.46079 0.30597,-0.4608 -0.48346,-0.60586 -0.48341,-0.60584 -1.05341,0.36238 -1.05335,0.36243 h -0.44932 -0.44932 l 0.002,-0.14378 0.002,-0.14379 0.14079,-0.20256 0.1408,-0.20257 1.15015,-0.81575 1.15009,-0.81577 0.21937,-1.18654 0.21937,-1.18655 0.52136,-1.10022 0.52132,-1.10026 -0.62947,-0.98095 -0.62944,-0.98094 -0.0863,-1.49325 -0.0865,-1.49328 0.47423,-1.03585 0.47425,-1.03585 0.61994,-0.70612 0.61998,-0.70611 -0.21481,-0.65111 -0.21484,-0.65113 -0.008,-1.23595 -0.008,-1.23597 0.23558,-1.19741 0.23559,-1.19745 -0.11786,-1.5293 -0.11785,-1.52932 -0.39831,-0.90258 -0.39831,-0.90261 -0.70953,-0.73476 -0.70952,-0.73481 -0.51775,-0.2718 -0.51774,-0.27181 h -1.05013 -1.05012 l -0.39738,0.50519 -0.39738,0.50518 v 0.9261 0.92612 l 0.27199,0.82156 0.27199,0.82156 0.44309,1.43797 0.44312,1.438 -0.008,2.30077 -0.008,2.30078 -0.34073,0.95867 -0.34072,0.95865 -1.20634,2.10903 -1.20632,2.10906 -0.33361,1.03532 -0.33365,1.03534 0.0983,1.6489 0.0983,1.64893 0.38521,1.00069 0.38524,1.00065 0.69338,0.9446 0.69337,0.94457 -0.11802,0.30757 -0.11803,0.3076 h -0.5641 -0.5642 l -0.51774,-0.26937 -0.51774,-0.26939 -0.41509,-0.44961 -0.41509,-0.44961 -0.7561,-1.3994 -0.7561,-1.39941 -0.20982,0.53662 -0.20985,0.53659 -0.22736,0.86279 -0.22735,0.86281 -0.007,1.82145 -0.007,1.82146 0.5206,1.51381 0.52058,1.51386 0.71099,0.90221 0.71097,0.9022 0.82895,0.63696 0.82899,0.63694 0.8966,0.23138 0.89661,0.2314 0.0709,-0.0638 0.0709,-0.0638 -0.65623,-0.91973 -0.65624,-0.91975 -0.23962,-0.55852 -0.23967,-0.55853 -0.1152,-1.23339 -0.11521,-1.23342 0.26913,-0.17025 0.2691,-0.17026 0.22922,-0.002 0.22922,-0.002 0.70525,1.34209 0.70525,1.34208 0.77508,0.88059 0.7751,0.88053 0.73667,0.46505 0.73669,0.46506 1.00491,0.39719 1.00495,0.39721 0.76693,0.1535 0.76692,0.15348 1.36329,0.0204 1.36329,0.0204 z m 5.25818,-1.54268 0.52051,-0.32255 0.54899,-0.49234 0.549,-0.49235 0.45048,-0.70388 0.45048,-0.70391 0.39058,-1.15941 0.39057,-1.15945 v -0.65661 -0.65657 l -0.30328,-0.11645 -0.30326,-0.11644 h -1.19431 -1.19435 l -2.75673,0.38346 -2.75675,0.38346 h -1.16733 -1.16735 l -0.42613,0.29847 -0.42612,0.29847 v 0.67854 0.67854 l 0.33552,0.57156 0.33554,0.57154 1.34213,0.63455 1.34211,0.63454 1.08642,0.10212 1.08642,0.10213 1.40611,-0.44879 1.40608,-0.44881 0.16919,0.16373 0.1692,0.16373 -0.11557,0.30101 -0.11556,0.30103 -0.89845,0.56978 -0.89848,0.56979 0.46125,0.18441 0.46127,0.18438 0.15049,0.0106 0.1505,0.0106 z m -2.83479,-8.49159 1.24626,-0.18235 1.53386,-0.10727 1.53382,-0.10726 0.80139,-0.10181 0.80135,-0.10181 0.4807,-0.37812 0.48068,-0.3781 0.39561,-1.05735 0.39559,-1.05734 v -0.53938 -0.5394 l -0.21187,-0.60784 -0.21187,-0.60786 -0.34095,-0.18257 -0.34097,-0.18236 -1.98759,-0.12349 -1.98758,-0.1235 -2.04536,0.22051 -2.04537,0.2205 -1.11821,0.2861 -1.1182,0.28608 -0.86278,0.43777 -0.86281,0.43778 -0.42822,0.75566 -0.42824,0.75567 -0.002,1.20704 -0.002,1.20703 0.49693,0.49693 0.49691,0.49694 2.04352,-0.12421 2.04353,-0.1242 z m -2.84227,-8.04237 1.44219,-0.36888 1.32317,-0.1053 1.32317,-0.1053 1.91475,-0.12791 1.91476,-0.12792 0.60852,-0.60851 0.6085,-0.60848 0.21619,-0.80329 0.2162,-0.80326 -0.20281,-0.75294 -0.20278,-0.75292 -0.56672,-0.47685 -0.56669,-0.47687 -0.72388,-0.25614 -0.72386,-0.25613 -1.91731,0.005 -1.91729,0.005 -1.43801,0.44452 -1.438,0.44451 -1.0782,0.57157 -1.07821,0.57155 -0.61436,0.63387 -0.61434,0.63382 -0.16602,0.73577 -0.16602,0.73577 0.18871,0.87938 0.18848,0.87938 0.37078,0.60965 0.37075,0.60964 0.64284,-0.37926 0.64283,-0.37929 z"
       style="fill:#000000;stroke-width:0.724655"
       id="path1-1" /><path
       style="fill:#000000;stroke-width:0.600844"
       d="m 130.07568,125.85025 c 0,0 11.65867,5.8512 47.11293,4.36238 3.10004,-0.1302 1.73525,8.92593 -1.35456,9.20924 -25.86513,2.37154 -50.98187,-1.34861 -50.98187,-1.34861 z"
       id="path3"
       sodipodi:nodetypes="csscc" /><path
       d="m 15.163215,180.01355 0.967088,-0.28719 0.511049,-0.40198 0.511043,-0.402 0.411221,-0.79671 0.411218,-0.79676 0.08107,-1.53385 0.08107,-1.53385 -0.282695,-1.1504 -0.282695,-1.15038 -0.351343,-0.90853 -0.351343,-0.90853 0.222435,-0.22231 0.222437,-0.22232 0.480256,0.31465 0.480257,0.3147 0.536178,0.91214 0.53618,0.91214 0.404569,1.24241 0.404573,1.24236 0.03758,1.44186 0.03758,1.44187 0.158167,0.15948 0.158167,0.15914 0.769135,-0.39238 0.76914,-0.39238 0.653456,-0.76341 0.653452,-0.76343 0.325803,-1.03355 0.325804,-1.03357 -0.0014,-0.75008 -0.0014,-0.75005 -0.199,-1.24628 -0.198999,-1.24625 -0.357152,-1.15039 -0.357149,-1.1504 -0.250355,-0.62044 -0.250353,-0.62044 0.228224,-0.22824 0.228225,-0.22823 0.417299,0.36936 0.417297,0.36936 0.739673,1.13534 0.739672,1.13537 0.477276,1.51085 0.477278,1.51086 v 0.74569 0.74572 l 0.162385,0.10043 0.162383,0.10033 0.497828,-0.52041 0.49783,-0.52046 0.526652,-1.15037 0.526652,-1.1504 0.07788,-1.53387 0.07788,-1.53383 -0.309413,-1.32041 -0.309407,-1.3204 -0.688916,-1.311 -0.688914,-1.31103 -0.855113,-0.7882 -0.855114,-0.78824 -1.259195,-0.58923 -1.259198,-0.58925 -2.324642,-0.0894 -2.324643,-0.0894 -1.514941,0.41563 -1.514942,0.41563 -1.70498,0.8472 -1.704981,0.84717 -0.804072,0.61623 -0.8040706,0.61617 -0.6424188,0.5897 -0.6424158,0.58968 -0.7612301,1.11198 -0.7612322,1.11196 -0.3698686,1.07504 -0.3698674,1.07502 0.0019,1.45592 0.0019,1.4559 0.4588251,0.98541 0.458825,0.98543 0.7376247,0.82028 0.7376236,0.82029 0.8472234,0.53974 0.8472207,0.5397 1.11471,0.21937 1.114711,0.21937 0.208355,0.25104 0.208356,0.25106 -0.19875,0.37138 -0.198749,0.37137 -0.85811,0.21619 -0.85811,0.21594 h -0.77802 -0.7778886 v 0.34455 0.34456 l 0.718995,0.68006 0.7189926,0.68006 0.575193,0.21097 0.575194,0.21098 0.383464,0.0843 0.383462,0.0844 0.780061,0.0228 0.780058,0.0228 z m -9.6329736,-15.10729 0.5133497,-1.01461 0.8464328,-1.14237 0.8464338,-1.14235 1.1582599,-0.97538 1.1582554,-0.97539 2.154312,-1.26878 2.154305,-1.26876 0.383465,-0.28091 0.383462,-0.28094 -0.342861,-0.3509 -0.342864,-0.35089 -1.574452,0.005 -1.574453,0.005 -1.3087336,0.44738 -1.3087367,0.4474 -1.4372395,0.96129 -1.4372426,0.96128 -0.7351653,0.93004 -0.7351641,0.93007 -0.3302818,0.86481 -0.3302828,0.86486 0.090485,0.94185 0.090485,0.94186 0.5175046,0.88308 0.5174993,0.88304 h 0.064927 0.064927 z m 5.0476336,-13.39788 c -0.08082,0.39606 -0.003,1.21267 -0.003,1.21267 l 0.167783,0.15985 0.167783,0.15984 1.150389,-0.18917 1.150389,-0.18916 0.81547,0.10727 0.815473,0.10726 0.71838,0.37026 0.718381,0.37024 0.611365,0.63995 0.61137,0.63992 0.194231,0.51541 0.194231,0.51542 1.686902,-0.1078 1.686902,-0.1078 1.437986,0.21801 1.437984,0.218 1.362864,0.66553 1.362861,0.66554 1.321523,1.39302 1.32152,1.393 0.700379,1.34213 0.700376,1.34211 0.313532,1.05453 0.313529,1.05453 0.180901,1.4005 0.180899,1.4005 -0.202995,1.45949 -0.202996,1.45953 -0.367449,0.9746 -0.367448,0.97465 -0.721946,0.9501 -0.721947,0.95013 -0.837711,0.63894 -0.837712,0.63895 -0.82563,0.22073 -0.825632,0.22073 -0.332632,0.73762 -0.332636,0.73766 -0.878408,0.88342 -0.87841,0.88347 -1.150389,0.54731 -1.150389,0.5473 -0.84135,1.6e-4 -0.84135,1.6e-4 -0.850654,0.78411 -0.850651,0.7841 -1.050638,0.48099 -1.050643,0.48099 -1.526506,0.10467 -1.526508,0.10467 -1.248698,-0.338 -1.248663,-0.33799 -1.0969228,-0.7097 L 8.0344412,181.329 7.541595,180.67146 7.0487478,180.0139 6.7267377,179.19514 6.4047255,178.37642 v -1.11309 -1.11308 L 5.8981436,175.68544 5.3915225,175.2206 4.6746776,174.12369 3.9578294,173.02678 3.6169022,171.76729 3.2759739,170.5078 3.473747,169.64353 3.6715211,168.77929 2.5789954,167.686 1.4864686,166.59269 1.0696444,165.35713 0.65282005,164.12157 v -1.07285 -1.07287 l 0.2947768,-1.13174 0.29477695,-1.13173 0.4072995,-0.68209 0.4072975,-0.68207 0.3627684,-0.40681 0.3627705,-0.40679 -0.3775571,-1.12703 -0.3775528,-1.12705 -0.1318452,-1.72561 c 0,0 -0.1776749,-1.15051 -0.1318261,-1.72556 3.7879635,-47.4954 55.6453325,-31.69868 55.6453325,-31.69868 l 2.671679,11.24691 c 0,0 -42.5795,-13.79846 -49.502855,20.13097 z"
       style="fill:#000000;stroke-width:0.724655"
       id="path1-6"
       sodipodi:nodetypes="ccccccccccccccccccccccccccccccccccccccccccccccccccccccccccccccccccccccccccccccccccccccccccccccccccccccccccccccccccccccccccccccccccccccccsccccccccccccccccccccccccccccccccccccccccccccccccccccccccccccccccccccccccccccccccccccsccs" /><path
       d="m 140.75238,260.22454 1.17276,-0.3039 1.53912,-0.76484 1.53916,-0.76482 1.4174,-1.08157 1.41744,-1.0816 -1.5133,-0.22075 -1.51325,-0.22072 -2.07646,-0.50501 -2.07649,-0.50499 h -0.56934 -0.56937 l -0.54373,0.28117 -0.54372,0.28114 -0.80815,0.91718 -0.80814,0.91716 -0.2875,0.55482 -0.28753,0.5548 v 0.68486 0.68483 l 0.50921,0.438 0.50919,0.43799 h 1.15995 1.15996 z m -4.77069,-6.22382 1.33174,-1.33209 2.40701,-1.66381 2.40702,-1.66382 1.53742,-1.5483 1.53744,-1.54827 1.71284,-2.4925 1.7128,-2.49251 1.0994,-1.48601 1.09937,-1.48598 1.15435,-1.41268 1.15434,-1.41269 1.01489,-0.91845 1.01488,-0.91847 1.3921,-0.91349 1.39209,-0.91347 0.90866,-0.29693 0.90871,-0.29694 0.81913,-0.12649 0.81908,-0.1265 0.0928,-0.15032 0.0928,-0.15031 -0.7868,-0.67351 -0.78686,-0.67351 -1.0839,-0.52576 -1.0839,-0.5258 -1.83047,-0.0838 -1.83043,-0.0838 -1.27695,0.38309 -1.27696,0.38307 -1.24112,0.69409 -1.24114,0.6941 -1.10217,1.00467 -1.10216,1.00468 -1.10506,1.48762 -1.10503,1.48761 -0.76965,1.53765 -0.7696,1.53765 -0.87525,2.76589 -0.87526,2.76588 -0.55298,1.23249 -0.55297,1.23243 -0.17096,0.10572 -0.17096,0.10573 -0.26034,-0.16108 -0.26032,-0.16073 0.11945,-1.54944 0.11944,-1.54944 -1.32867,0.8835 -1.32867,0.8835 -0.30155,-0.11592 -0.30155,-0.11573 0.31894,-0.62657 0.31899,-0.62657 1.48548,-1.438 1.48548,-1.43799 0.19939,-1.1504 0.19939,-1.15036 -0.25462,-0.26388 -0.25461,-0.26387 -1.07854,0.13462 -1.07857,0.13461 -1.54734,0.7745 -1.54737,0.77446 -1.13529,1.16383 -1.13527,1.16384 -0.56455,1.16262 -0.56454,1.16266 -0.14943,0.76691 -0.14943,0.76694 0.0182,0.57518 0.0182,0.57521 0.0293,0.53327 0.0293,0.53328 0.28543,0.10939 0.2854,0.10939 0.93951,-0.78661 0.93953,-0.78662 h 0.39346 0.39348 l 0.11344,0.18372 0.11362,0.18373 -0.65338,1.3021 -0.65339,1.30215 -0.47691,1.34212 -0.47693,1.3421 -0.12421,0.97072 -0.12421,0.97071 0.19643,1.03579 0.19645,1.03574 0.40507,0.83685 0.40511,0.83682 0.69451,-1.27096 0.69449,-1.27099 z m 15.30818,-0.64506 1.48388,-0.84561 1.56154,-1.11963 1.56154,-1.11963 1.51091,-1.41685 1.51088,-1.41688 1.22625,-1.63392 1.22629,-1.63389 0.86904,-1.75093 0.86905,-1.75095 0.2843,-1.23781 0.28432,-1.23785 0.11768,-1.43798 0.11768,-1.43798 -0.39558,-0.62791 -0.39556,-0.6279 -0.52718,-0.20484 -0.52717,-0.20483 -1.01816,0.10107 -1.01815,0.10106 -1.1991,0.56112 -1.19911,0.56116 -1.3058,1.22151 -1.30581,1.22151 -1.09618,1.34565 -1.09618,1.34565 -1.32444,1.88781 -1.32441,1.88779 -0.28251,0.41296 -0.28248,0.413 -1.42547,1.91729 -1.42545,1.91734 -1.66151,1.62971 -1.66152,1.62972 -0.79554,0.47931 -0.79555,0.47936 -0.005,0.10744 -0.005,0.10745 2.157,0.42934 2.15697,0.42933 1.1504,0.15879 1.15038,0.15878 0.67569,0.0235 0.67573,0.0233 z m -14.90732,-30.19307 1.2137,2.41749 0.65904,1.89646 0.65903,1.89647 0.30402,1.91731 0.30402,1.91729 0.12173,1.00753 0.12174,1.00746 0.50915,0.11291 0.50916,0.11291 0.32711,0.0884 0.3271,0.0884 0.51428,-1.01686 0.51429,-1.0168 0.71615,-1.05454 0.71614,-1.05453 1.28007,-1.38098 1.28003,-1.38097 1.1875,-0.89265 1.1875,-0.89268 1.08865,-0.54953 1.08866,-0.54956 1.40128,-0.3883 1.40126,-0.38833 h 1.88736 1.88738 l 1.45073,0.48699 1.45072,0.487 0.88385,0.51777 0.88388,0.51781 1.26302,1.24808 1.26301,1.24806 0.68572,1.24622 0.6857,1.24628 0.29714,1.0179 0.29716,1.01793 0.12491,1.37916 0.12491,1.37911 -0.22142,1.42735 -0.22141,1.4274 -0.49109,1.44818 -0.49105,1.44819 -0.76439,1.43801 -0.76439,1.43797 -1.06439,1.48018 -1.06444,1.48017 -1.45922,1.47469 -1.45927,1.47466 -1.38077,1.10212 -1.38081,1.10209 -1.74405,1.07883 -1.74408,1.07884 -0.81785,0.39733 -0.81783,0.39735 -0.53578,0.84687 -0.53577,0.84686 -1.03231,0.80623 -1.03233,0.80628 0.33404,0.12226 0.33406,0.12209 1.7256,0.13197 1.72557,0.13197 2.75554,0.47122 2.75558,0.47122 0.88736,0.44146 0.88731,0.44149 0.0598,0.40682 0.0598,0.40686 -0.38466,0.38468 -0.38468,0.38471 -1.00023,0.29703 -1.00021,0.29703 -2.31772,0.2897 -2.31773,0.28969 -4.05652,0.17342 -4.0565,0.17344 -5.26102,-0.16972 -5.26106,-0.16955 -1.32355,-0.10022 -1.32354,-0.10022 -1.438,-0.11027 -1.43798,-0.11044 -2.68425,-0.37576 -2.68424,-0.37577 -1.05198,-0.30018 -1.052,-0.30013 -0.52978,-0.27397 -0.52981,-0.27397 v -0.56584 -0.56585 l 0.43141,-0.28225 0.43141,-0.28229 1.15036,-0.30029 1.15039,-0.30029 1.72557,-0.20052 1.7256,-0.20053 2.54912,-0.13214 2.5491,-0.13215 -0.50944,-0.67106 -0.50949,-0.67108 -0.36735,-0.80671 -0.36738,-0.80674 -0.11062,-1.49405 -0.11062,-1.49405 0.30838,-1.30902 0.30839,-1.30902 -0.65093,-0.80002 -0.65095,-0.80004 -0.30839,-0.91742 -0.3084,-0.91743 0.007,-1.09575 0.007,-1.09575 0.25516,-1.18901 0.25514,-1.18902 0.66556,-1.39934 0.66556,-1.39936 0.98987,-1.08143 0.98986,-1.08141 v -1.14632 -1.14631 l -0.29312,-1.70277 -0.29312,-1.70278 -0.38515,-1.43798 -0.38514,-1.43798 -0.56596,-1.49699 -0.56597,-1.49695 -1.07527,-1.94221 c 0,0 -8.72289,-30.11809 -24.63636,-33.4592 -2.64687,-0.55572 3.67531,-10.68398 5.90971,-9.16007 16.44205,11.21391 26.99592,41.15381 26.99592,41.15381 z"
       style="fill:#000000;stroke-width:0.724655"
       id="path1-3"
       sodipodi:nodetypes="ccccccccccccccccccccccccccccccccccccccccccccccccccccccccccccccccccccccccccccccccccccccccccccccccccccccccccccccccccccccccccccccccccccccccccccccccccccccccccccccccccccccccccccccccccccccccccccccccccccccccccccccccccccccccccccccccccccccccccccccccccccccccccccccccccccccccccccccccccccccccccccccccccccssc" /></g><path
     d="m 28.164439,265.29092 -2.300775,-0.1572 -1.437988,-0.12333 -1.437988,-0.12332 -1.917312,-0.28585 -1.917316,-0.2858 -2.427563,-0.55621 -2.427563,-0.55622 -0.831872,-0.41769 -0.831875,-0.41768 -0.431394,-0.39524 -0.431397,-0.39525 v -0.42888 -0.42884 l 0.583972,-0.4914 0.58397,-0.49139 1.257674,-0.38842 1.257675,-0.38848 h 0.271053 0.271053 l -0.145094,-0.52725 -0.145094,-0.52727 0.01341,-2.30078 0.01341,-2.30079 0.537362,-1.3421 0.537361,-1.34212 0.853193,-1.20748 0.853194,-1.20749 1.277954,-1.05575 1.277955,-1.05574 1.159084,-0.57182 1.159081,-0.57182 1.045832,-0.27829 1.045829,-0.27833 1.917314,0.002 1.917315,0.002 1.629718,0.36305 1.629718,0.36305 0.527261,0.20324 0.527263,0.20325 0.0011,-0.42665 0.0011,-0.42665 0.211693,-0.76693 0.211694,-0.76693 0.985562,-0.98387 0.985564,-0.98388 1.102458,-0.3453 1.102455,-0.34535 8.191767,-1.70354 0.125758,0.67034 0.125739,0.67031 0.619021,0.10265 0.619022,0.10266 1.077686,0.40562 1.077687,0.40563 0.695526,0.67549 0.695529,0.6755 0.320274,0.61418 0.320273,0.6142 0.08638,1.45576 0.08638,1.45574 -0.229946,0.42968 -0.229946,0.42966 0.890857,0.87827 0.89086,0.87827 0.467957,0.92347 0.467961,0.92345 0.283388,1.20201 0.283401,1.20199 0.003,1.85216 0.003,1.85217 1.581784,0.0997 1.581783,0.0997 4.218099,0.30406 4.218085,0.30404 1.725585,0.30638 1.725603,0.30642 0.862784,0.31978 0.862784,0.31979 v 0.76093 0.76092 l -1.054507,0.51961 -1.054544,0.51958 -1.960128,0.38594 -1.960128,0.38598 -3.695956,0.47435 -3.695941,0.47434 -5.464351,0.48567 -5.464347,0.48565 -2.780109,0.20348 -2.780106,0.20347 -2.396645,0.17273 -2.396644,0.17272 -3.355299,0.0918 -3.355304,0.0915 z m 7.860993,-3.13285 0.383464,-0.0859 1.054522,-0.13426 1.054524,-0.13426 1.510522,-0.367 1.51052,-0.36703 0.656543,-0.40576 0.656544,-0.40577 -0.0617,-0.0616 -0.0617,-0.0616 -2.105361,0.28736 -2.105362,0.28735 -4.601557,0.0282 -4.601558,0.0283 -2.109043,-0.33716 -2.10905,-0.33716 -1.53385,-0.40488 -1.533859,-0.40489 -0.842353,-0.35762 -0.842352,-0.35762 -0.8353,-0.56373 -0.835299,-0.56374 v 0.17025 0.17025 l 0.629507,0.82976 0.629503,0.82977 0.8805,0.59273 0.880501,0.59273 1.605634,0.51977 1.605633,0.51979 2.780105,0.35121 2.780107,0.35124 2.588376,-0.0614 2.588375,-0.0614 z m 12.133054,-1.95414 1.20436,-0.28395 0.736772,-0.37586 0.736772,-0.37587 0.503447,-0.59832 0.503445,-0.59832 v -0.26643 -0.26642 l -0.644151,0.38009 -0.644151,0.38003 -1.608694,0.53966 -1.608695,0.53963 -1.198321,0.25043 -1.198323,0.25041 v 0.22947 0.22942 l 0.127822,0.12792 0.127839,0.12791 0.878771,-0.002 0.878766,-0.002 z m -7.148032,-1.32388 1.917313,-0.2813 2.221859,-0.48057 2.221858,-0.48057 1.306398,-0.49174 1.306399,-0.49172 0.621492,-0.3841 0.621491,-0.3841 0.308009,-0.64908 0.308009,-0.64909 v -0.75107 -0.75109 l -0.299822,-1.00959 -0.299823,-1.00962 -0.645625,-0.70286 -0.645626,-0.70282 H 47.691077 45.42977 l -0.06147,-0.30815 -0.06147,-0.30814 0.977649,-0.42059 0.977647,-0.42057 0.746025,-0.67396 0.746023,-0.67402 0.221414,-0.67089 0.221414,-0.67092 -0.122493,-0.65291 -0.122494,-0.65292 -0.473484,-0.56272 -0.473486,-0.56268 -0.562906,-0.19621 -0.562907,-0.19619 -0.40244,0.8313 -0.402442,0.83136 -0.667875,0.31691 -0.667872,0.31693 -1.11901,0.18031 -1.119009,0.1803 -0.984629,-0.18667 -0.98463,-0.18666 -0.540234,-0.27937 -0.540234,-0.27937 -0.360354,-0.82807 -0.360355,-0.82808 -0.03961,-0.0613 -0.03961,-0.0614 -0.781553,0.39874 -0.781553,0.3987 -0.271611,0.52541 -0.271606,0.52536 -0.04115,0.47936 -0.04115,0.47931 0.02111,0.32084 0.02112,0.3208 0.524389,0.62319 0.524387,0.6232 1.344993,0.61996 1.344999,0.61996 1.246251,0.24032 1.246256,0.24034 0.14086,0.20893 0.14086,0.20893 0.003,0.12067 0.003,0.12068 -0.575609,0.23839 -0.575607,0.23846 -1.701946,-0.0813 -1.701946,-0.0814 0.665355,1.00208 0.66536,1.00212 -0.126304,0.39795 -0.126305,0.39794 h -0.453647 -0.453573 l -0.694963,-0.8481 -0.694965,-0.84812 -1.030876,-0.7783 -1.030875,-0.77834 -1.2109,-0.65942 -1.210904,-0.65945 -1.437988,-0.44631 -1.437986,-0.44629 -2.396642,0.0106 -2.396646,0.0106 -1.509241,0.63901 -1.509243,0.63903 -1.129731,1.10547 -1.129735,1.10541 -0.467486,1.02394 -0.467487,1.02395 -0.127468,1.25464 -0.127469,1.25462 0.698814,0.61358 0.698815,0.61354 0.800306,0.40829 0.800305,0.4083 1.003826,0.34537 1.003825,0.34536 2.073104,0.42068 2.0731,0.4207 1.342119,0.1572 1.342123,0.1572 4.313958,-0.0791 4.31396,-0.079 z"
     style="fill:#000000;stroke-width:0.724655"
     id="path1-68" /><path
     style="fill:#000000;stroke-width:0.600844"
     d="m 38.664361,240.34946 c 0,0 23.374598,-56.24603 36.460053,-61.01053 4.090368,-1.48932 9.297858,13.23331 5.119029,12.01407 -11.738116,-3.42477 -33.639359,50.25011 -33.639359,50.25011 z"
     id="path4"
     sodipodi:nodetypes="csscc" /></svg>
