<?xml version="1.0" encoding="UTF-8" standalone="no"?>
<!-- Created with Inkscape (http://www.inkscape.org/) -->

<svg
   width="210mm"
   height="297mm"
   viewBox="0 0 210 297"
   version="1.1"
   id="svg1"
   xml:space="preserve"
   inkscape:version="1.4.2 (f4327f4, 2025-05-13)"
   sodipodi:docname="hero.svg"
   xmlns:inkscape="http://www.inkscape.org/namespaces/inkscape"
   xmlns:sodipodi="http://sodipodi.sourceforge.net/DTD/sodipodi-0.dtd"
   xmlns:xlink="http://www.w3.org/1999/xlink"
   xmlns="http://www.w3.org/2000/svg"
   xmlns:svg="http://www.w3.org/2000/svg"><sodipodi:namedview
     id="namedview1"
     pagecolor="#ffffff"
     bordercolor="#000000"
     borderopacity="0.25"
     inkscape:showpageshadow="2"
     inkscape:pageopacity="0.0"
     inkscape:pagecheckerboard="0"
     inkscape:deskcolor="#d1d1d1"
     inkscape:document-units="mm"
     showguides="false"
     inkscape:zoom="0.50835204"
     inkscape:cx="256.71186"
     inkscape:cy="569.48724"
     inkscape:window-width="1920"
     inkscape:window-height="1009"
     inkscape:window-x="-8"
     inkscape:window-y="-8"
     inkscape:window-maximized="1"
     inkscape:current-layer="layer10" /><defs
     id="defs1"><linearGradient
       id="linearGradient23"
       inkscape:collect="always"><stop
         style="stop-color:#e5e5e5;stop-opacity:1;"
         offset="0"
         id="stop23" /><stop
         style="stop-color:#e5e5e5;stop-opacity:0;"
         offset="1"
         id="stop24" /></linearGradient><linearGradient
       inkscape:collect="always"
       xlink:href="#linearGradient23"
       id="linearGradient24"
       x1="50.926118"
       y1="229.54704"
       x2="58.562723"
       y2="229.54704"
       gradientUnits="userSpaceOnUse" /></defs><g
     inkscape:label="Layer 1"
     inkscape:groupmode="layer"
     id="layer1" /><g
     inkscape:groupmode="layer"
     id="layer9"
     inkscape:label="Pelo 1"
     style="display:inline"><path
       style="display:inline;opacity:1;fill:#786913;fill-opacity:1;stroke:#000000;stroke-width:3;stroke-linecap:square;stroke-linejoin:miter;stroke-miterlimit:3.2;stroke-dasharray:none;stroke-opacity:1;paint-order:stroke fill markers"
       d="m 118.79788,141.95891 c 0,0 2.45358,17.26937 3.4868,26.88575 0.56545,5.26278 -1.90983,8.78985 -1.90983,8.78985 0,0 9.13717,-11.04907 11.30473,-13.29527 4.75643,-4.92901 -1.70238,20.59023 -1.70238,20.59023 0,0 10.98787,-14.29687 16.27561,-19.41917 6.78344,-6.57121 -4.27157,28.00921 -4.27157,28.00921 0,0 21.54257,-37.79033 15.9114,-23.52746 -3.46953,8.78777 -5.6005,26.39549 -5.6005,26.39549 0,0 8.40473,-7.23783 13.90416,-38.11538 1.64964,-9.26222 -11.22557,-22.16856 -11.22557,-22.16856 l -18.6069,-26.80435 -6.37579,-1.04094 z"
       id="path17"
       sodipodi:nodetypes="cscscscscscccc" /></g><g
     inkscape:groupmode="layer"
     id="layer2"
     inkscape:label="Mascota real"
     style="display:inline"><path
       style="fill:#000000;stroke-width:1.52205"
       d="m 110.91688,189.32466 0.20045,-0.54126 16.00729,-51.77166 16.00729,-51.771675 V 82.416988 79.593927 H 101.19687 59.261864 v 2.758315 2.758313 l 20.071524,52.377685 20.07151,52.37767 h 5.655792 5.65574 z M 87.203831,132.18658 72.712718,92.749245 v -0.223696 -0.223695 h 26.94402 26.944052 l -0.21375,0.577198 -0.21375,0.577198 -11.97512,39.39003 -11.97511,39.39001 -0.26407,-0.30619 -0.26404,-0.30619 z"
       id="path2" /><path
       style="fill:#000000;fill-opacity:1;stroke:#000000;stroke-width:1.465;stroke-linecap:round;stroke-linejoin:round;stroke-dasharray:none;stroke-opacity:1;paint-order:stroke fill markers"
       d="m 82.070632,139.75929 c -7.988478,4.40031 -27.188199,23.09387 -27.188199,23.09387 l 0.920075,8.00465 c 0,0 12.146994,-19.69246 27.924257,-25.48606 4.199123,-1.54197 2.364922,-7.82738 -1.656133,-5.61246 z"
       id="path6"
       sodipodi:nodetypes="sccss" /><path
       style="fill:#000000;fill-opacity:1;stroke:#000000;stroke-width:1.465;stroke-linecap:round;stroke-linejoin:round;stroke-dasharray:none;stroke-opacity:1;paint-order:stroke fill markers"
       d="m 113.85339,139.22643 c -10.66669,6.86637 -58.032698,28.10553 -58.032698,28.10553 l -0.650591,4.42401 c 0,0 40.674542,-14.24062 57.512229,-26.02363 1.80534,-1.26337 3.02386,-7.6986 1.17106,-6.50591 z"
       id="path7"
       sodipodi:nodetypes="sccss" /></g><g
     inkscape:groupmode="layer"
     id="layer5"
     inkscape:label="Pelo"
     style="display:inline"><path
       style="opacity:1;fill:#e0be00;fill-opacity:1;stroke:#000000;stroke-width:3;stroke-linecap:square;stroke-linejoin:miter;stroke-miterlimit:3.2;stroke-dasharray:none;stroke-opacity:1;paint-order:stroke fill markers"
       d="m 63.395285,79.24579 c 0,0 19.015419,-9.611851 32.810516,-13.140347 9.425969,-2.410965 14.760249,-2.579838 24.362089,-1.009374 5.80242,0.949037 11.12197,1.449402 16.94693,4.29773 6.65678,3.255078 15.55679,11.110085 17.32579,18.305839 2.58869,10.529994 -1.07389,21.768402 0.26024,32.529542 3.29524,26.57951 9.19353,8.95746 11.16625,35.6677 0.98165,13.2913 -9.18226,8.34736 -9.18226,8.34736 0,0 11.23372,-10.58386 1.71705,-10.22674 -2.65378,0.0996 -8.02811,7.3195 -8.02811,7.3195 0,0 3.74025,-14.72606 2.04267,-12.2455 -8.63994,12.625 -15.13611,4.26747 -15.13611,4.26747 0,0 8.33926,2.73389 5.62058,-4.68015 -4.67145,-12.7394 -13.5562,2.67673 -13.5562,2.67673 0,0 2.13997,-4.01397 4.27699,-6.40392 10.23527,-11.44666 -3.11182,-27.47031 3.28069,-45.949084 1.90085,-5.494788 3.81976,-17.70547 0.76221,-17.028106 -34.32317,7.603915 -74.669325,-2.72865 -74.669325,-2.72865 z"
       id="path16"
       sodipodi:nodetypes="csssssscscscscsssc" /><path
       style="display:inline;opacity:1;fill:#d0b200;fill-opacity:1;stroke:none;stroke-width:0.499999;stroke-linecap:square;stroke-linejoin:round;stroke-miterlimit:1.9;stroke-dasharray:none;stroke-opacity:1;paint-order:stroke fill markers"
       d="m 84.692843,83.013705 c 1.555839,-10.050667 25.072027,-16.860361 25.072027,-16.860361 0,0 -21.378245,0.04798 -38.045074,14.744193 -0.351887,0.310282 12.973047,2.116168 12.973047,2.116168 z"
       id="path20"
       sodipodi:nodetypes="ccsc" /><path
       style="display:inline;fill:#d0b200;fill-opacity:1;stroke:none;stroke-width:0.499999;stroke-linecap:square;stroke-linejoin:round;stroke-miterlimit:1.9;stroke-dasharray:none;stroke-opacity:1;paint-order:stroke fill markers"
       d="M 95.865633,84.121598 C 97.421471,74.070931 124.38793,69.53842 124.38793,69.53842 c 0,0 -20.41216,-0.274047 -38.781125,13.548097 -0.374873,0.282081 10.258828,1.035081 10.258828,1.035081 z"
       id="path20-0"
       sodipodi:nodetypes="ccsc" /><path
       style="display:inline;fill:#d0b200;fill-opacity:1;stroke:none;stroke-width:0.499999;stroke-linecap:square;stroke-linejoin:round;stroke-miterlimit:1.9;stroke-dasharray:none;stroke-opacity:1;paint-order:stroke fill markers"
       d="m 109.35304,84.757266 c 5.39431,-7.05795 23.45825,-9.046897 23.45825,-9.046897 0,0 -14.84797,-0.981805 -36.209652,8.481381 -0.428942,0.190021 12.751402,0.565516 12.751402,0.565516 z"
       id="path20-0-2"
       sodipodi:nodetypes="ccsc" /></g><g
     inkscape:groupmode="layer"
     id="layer10"
     inkscape:label="Sombra Pelo"><path
       style="opacity:0.186567;mix-blend-mode:luminosity;fill:#000000;fill-opacity:1;stroke:none;stroke-width:0.499999;stroke-linecap:square;stroke-linejoin:round;stroke-miterlimit:1.9;stroke-dasharray:none;stroke-opacity:1;paint-order:stroke fill markers"
       d="m 138.57584,82.755152 c 0,0 5.24883,7.395146 3.21372,41.127238 -0.51628,8.55725 -9.84975,40.71708 -9.84975,40.71708 l -11.71063,12.49135 c 0,0 2.37129,-64.88714 4.20236,-53.36404 3.52295,22.17031 14.1443,-40.971628 14.1443,-40.971628 z"
       id="path24"
       sodipodi:nodetypes="csccsc" /></g><g
     inkscape:groupmode="layer"
     id="layer4"
     inkscape:label="Grieta"
     style="stroke-width:0.7;stroke-dasharray:none;stroke:none;stroke-opacity:1;fill:#000000;fill-opacity:1"><path
       style="fill:#000000;fill-opacity:1;stroke:none;stroke-width:0.7;stroke-linecap:round;stroke-linejoin:round;stroke-dasharray:none;stroke-opacity:1;paint-order:stroke fill markers"
       d="m 44.899627,284.671 c 0.122677,-0.0613 0.429369,-0.0613 0.36803,-0.18402 -0.06134,-0.12266 -0.245353,0.12269 -0.36803,0.18402 0.398701,-0.15335 0.809585,-0.27816 1.196097,-0.46003 0.601535,-0.28308 1.030099,-0.9457 1.656135,-1.1961 0.338267,-0.13531 1.54059,0.087 1.932154,0 0.149696,-0.0333 0.222555,-0.22755 0.36803,-0.27602 1.070163,-0.35673 1.893017,-1.14638 2.760224,-1.84015 0.241797,-0.19343 0.52528,-0.38436 0.828066,-0.46003 0.07636,-0.019 0.206325,0.0349 0.276024,0 0.07759,-0.0388 0.106426,-0.14523 0.184015,-0.18402 0.05486,-0.0274 0.129151,0.0274 0.184015,0 0.309954,-0.15499 0.260644,-0.59036 0.552043,-0.73607 0.15258,-0.0763 0.540639,0.0772 0.644054,0.092 0.203581,0.0291 0.442645,-0.0447 0.644051,0 0.735304,0.16341 1.129453,0.26651 1.840148,0 0.450146,-0.16881 1.002088,-0.53872 1.288106,-0.92006 0.09018,-0.12023 0.48697,-0.76301 0.644051,-0.92007 0.375409,-0.37541 1.048851,-0.42822 1.472118,-0.73607 0.158819,-0.11551 0.204634,-0.3511 0.36803,-0.46003 0.642191,-0.42812 -0.452353,0.40825 0.460036,-0.27604 0.181904,-0.13642 0.349427,-0.0489 0.552045,-0.18399 0.03067,-0.0307 0.06134,-0.0614 0.09201,-0.092 0,-0.0307 -0.0217,-0.0703 0,-0.092 0.129231,-0.12925 0.513829,-0.005 0.644052,-0.092 0.144354,-0.0962 0.232555,-0.25963 0.36803,-0.36803 0.215114,-0.17209 0.500726,-0.25035 0.736057,-0.36801 0.289584,-0.14481 0.795274,0.10292 1.104091,0 0.182999,-0.061 0.276021,-0.29663 0.276021,-0.46006"
       id="path9" /><path
       style="fill:#000000;fill-opacity:1;stroke:none;stroke-width:0.7;stroke-linecap:round;stroke-linejoin:round;stroke-dasharray:none;stroke-opacity:1;paint-order:stroke fill markers"
       d="m 62.933084,286.69517 c -0.517577,-0.53348 -1.173868,-0.67779 -1.840148,-0.92009 -0.409244,-0.1488 -0.787587,-0.40349 -1.196096,-0.55203 -0.328628,-0.11951 -0.690674,-0.13827 -1.012082,-0.27604 -0.238511,-0.10221 -0.425296,-0.33851 -0.644054,-0.46003 -0.09005,-0.05 -1.444905,-0.68162 -1.564124,-0.92006 -0.02743,-0.0549 -0.01204,-0.12388 0,-0.18402 0.156036,-0.78018 0.442519,-0.34176 0.644052,-0.64405 0.25432,-0.3815 -0.639144,-1.1912 -0.828067,-1.38012 -0.234952,-0.23495 -0.965118,-1.01168 -1.196096,-1.10408 -0.08543,-0.0342 -0.188738,0.0291 -0.276024,0 -0.104905,-0.035 -0.173353,-0.14295 -0.276021,-0.18401 -0.03593,-0.0143 -0.276024,0.0535 -0.276024,-0.092 0,-0.58597 1.374129,-0.0175 1.012084,-0.27601 -0.179965,-0.12853 -0.36803,-0.24535 -0.552045,-0.36803 -0.09201,-0.0613 -0.177118,-0.13457 -0.276024,-0.18402 -0.12944,-0.0647 -0.41978,0.0331 -0.552043,0 -0.160229,-0.0401 -0.29981,-0.14396 -0.460039,-0.18402 -0.17852,-0.0446 -0.377473,0.0582 -0.552042,0 -0.104905,-0.0349 -0.173353,-0.14293 -0.276024,-0.18402 -0.170852,-0.0683 -0.36988,0.0259 -0.552045,0 -1.214435,-0.17349 0.428278,-0.006 -0.460037,-0.18399 -0.09022,-0.018 -0.187555,0.0251 -0.276021,0 -0.26402,-0.0754 -0.495991,-0.28802 -0.73606,-0.36803 -0.05819,-0.0193 -0.124508,0.0148 -0.184015,0 -0.444299,-0.11108 0.0045,-0.0437 -0.276022,-0.18402 -0.796938,-0.39846 -1.651222,-0.63916 -2.300187,-1.2881"
       id="path10" /></g><g
     inkscape:groupmode="layer"
     id="layer3"
     inkscape:label="Espada"
     style="display:inline"><path
       style="display:inline;opacity:1;fill:url(#linearGradient24);fill-opacity:1;stroke:none;stroke-width:0.499999;stroke-linecap:square;stroke-linejoin:round;stroke-miterlimit:1.9;stroke-dasharray:none;stroke-opacity:1;paint-order:stroke fill markers"
       d="m 51.884616,181.84013 v 12.19858 l 0.03058,0.85604 -0.460036,0.96608 -0.529042,0.27602 v 70.93772 l 0.276021,1.58713 0.184015,1.49513 0.115009,1.38012 0.483039,1.93215 0.805066,2.36918 1.035082,2.69124 0.782064,1.19607 0.529042,-0.39102 1.012081,-2.18517 0.897073,-2.23118 0.897072,-3.6113 0.598051,-5.1064 0.02299,-5.17543 -0.06901,-14.28415 0.02299,-14.39917 -0.02299,-16.83736 -0.02299,-15.68727 0.02299,-3.88731 -0.575045,-0.34503 -0.36803,-0.80506 -0.09201,-0.78206 0.069,-6.0725 v -5.79646 l -3.22026,-2.76023 -2.73722,2.4152 z"
       id="path23" /><path
       style="display:inline;opacity:1;fill:#cbcbcb;fill-opacity:1;stroke:none;stroke-width:0.499999;stroke-linecap:square;stroke-linejoin:round;stroke-miterlimit:1.9;stroke-dasharray:none;stroke-opacity:1;paint-order:stroke fill markers"
       d="m 53.02315,181.95398 c 0,0 0.02093,12.0291 -0.08132,12.34496 -0.572537,1.7686 -2.016832,1.78913 -2.016832,1.78913 l 0.04879,0.84577 c 0,0 1.643392,0.19404 1.935509,1.90297 0.0673,0.3937 0.0991,65.64054 0.09759,65.67715 -0.07428,1.80326 1.707801,8.14863 1.707801,8.14863 0,0 1.731999,-5.61753 1.67527,-8.21369 -7.21e-4,-0.033 0.0576,-65.25886 0.113856,-65.4657 0.589722,-2.16822 1.984301,-2.04936 1.984301,-2.04936 l -0.03253,-0.79698 c 0,0 -1.747578,-0.0397 -1.95177,-2.09815 -0.02262,-0.22798 0.04879,-12.06846 0.04879,-12.06846 z"
       id="path22"
       sodipodi:nodetypes="csccsscssccscc" /><path
       style="display:inline;opacity:1;fill:#d0cf00;fill-opacity:1;stroke:none;stroke-width:0.499999;stroke-linecap:square;stroke-linejoin:round;stroke-miterlimit:1.9;stroke-dasharray:none;stroke-opacity:1;paint-order:stroke fill markers"
       d="m 53.169534,181.8076 1.463828,3.62704 1.171064,-2.32586 0.780709,-1.80539 -1.80539,-1.33371 z"
       id="path21" /><path
       style="fill:#000000;fill-opacity:1;stroke-width:0.219829"
       d="m 54.570737,279.91689 -0.111513,-0.11968 -0.360174,-0.60464 -0.360176,-0.60464 -0.342964,-0.71833 -0.342971,-0.71834 -0.288614,-0.72704 -0.288611,-0.72703 -0.240342,-0.74119 -0.240345,-0.7412 -0.229334,-0.88737 -0.22933,-0.8874 -0.176583,-0.9306 -0.176581,-0.9306 -0.112853,-0.90152 -0.112853,-0.90155 -0.07672,-0.90152 -0.07672,-0.90153 v -35.53717 -35.53719 l 0.232537,-0.1207 0.232542,-0.1207 0.158072,-0.25788 0.158072,-0.2579 0.102773,-0.34897 0.102773,-0.34898 0.01723,-5.56913 0.01722,-5.56912 h -0.05083 -0.05083 l -0.105491,0.11662 -0.105491,0.11662 -0.223419,0.0602 -0.223413,0.0601 -0.233383,-0.0628 -0.233383,-0.0629 -0.33371,-0.26673 -0.333707,-0.26673 -0.424644,-0.41424 -0.424643,-0.41426 -0.240998,-0.31084 -0.241,-0.31085 -0.08261,0.1073 -0.08262,0.10731 -0.339695,0.69385 -0.339696,0.69383 -0.263183,0.8184 -0.263184,0.81841 -0.08746,0.31989 -0.08746,0.3199 -0.267705,0.27628 -0.26771,0.27627 h -1.989235 -1.989238 l -0.282795,-0.2871 -0.282791,-0.28712 0.10239,-0.36723 0.102403,-0.36721 0.221487,-0.59149 0.221489,-0.5915 0.261649,-0.5427 0.261648,-0.54269 0.333084,-0.55254 0.333082,-0.55255 0.412464,-0.55081 0.412464,-0.55081 0.55339,-0.57825 0.55339,-0.57826 0.509344,-0.42531 0.509337,-0.4253 0.432721,-0.292 0.432717,-0.29199 0.296467,-0.17481 0.296468,-0.1748 h 0.08856 0.08857 l 0.185148,0.13943 0.185149,0.13943 0.271363,0.0908 0.271364,0.0909 0.630165,0.0646 0.630168,0.0644 0.523467,-0.0185 0.523471,-0.0186 -0.02044,-0.17307 -0.02041,-0.17309 -0.139525,-0.16582 -0.139522,-0.16581 v -0.14418 -0.14417 l 0.387549,-0.38757 0.387556,-0.38754 0.214276,-0.33153 0.214279,-0.33154 0.07401,-0.26435 0.07402,-0.26434 -0.123303,-0.23657 -0.123302,-0.23654 v -0.11993 -0.11993 l 0.116323,-0.14788 0.116323,-0.14789 v -10.10352 -10.10353 l -0.116323,-0.10539 -0.116323,-0.10526 v -0.20452 -0.20452 l 0.08666,-0.0957 0.08666,-0.0957 -0.287835,-0.65112 -0.287833,-0.65112 -0.147812,-0.1938 -0.147808,-0.19378 6.19e-4,-0.16901 6.17e-4,-0.16899 0.143269,-0.2506 0.143274,-0.25061 0.583065,-2.73161 0.583069,-2.73163 9.36e-4,-0.33307 9.37e-4,-0.33308 0.04683,-0.0737 0.04683,-0.0737 1.391816,0.0156 1.391817,0.0156 0.03552,0.4362 0.03546,0.43623 0.592026,2.72788 0.592035,2.72785 0.114537,0.16087 0.114537,0.16085 0.03607,0.18051 0.03607,0.1805 -0.210835,0.31752 -0.21083,0.31753 -0.206422,0.49867 -0.206425,0.49867 0.148027,0.17593 0.148026,0.17592 v 0.16217 0.1622 l -0.116324,0.14789 -0.116323,0.14787 v 10.10204 10.10204 l 0.116323,0.14789 0.116324,0.14788 v 0.12973 0.12972 l -0.116324,0.14788 -0.116323,0.14788 v 0.17313 0.17313 l 0.231924,0.46335 0.231924,0.46338 0.407866,0.38264 0.407873,0.38264 v 0.19982 0.19981 l -0.116833,0.14854 -0.116834,0.14852 -0.03583,0.17921 -0.03583,0.17922 0.57436,-0.001 0.574359,-0.001 0.552546,-0.0577 0.552554,-0.0578 0.311371,-0.0901 0.311381,-0.0901 0.142028,-0.14202 0.142034,-0.14203 h 0.140842 0.140836 l 0.481773,0.30276 0.481769,0.30277 0.465303,0.34716 0.465313,0.34718 0.483932,0.43526 0.483942,0.43527 0.555459,0.64514 0.555459,0.64516 0.452531,0.68269 0.452532,0.68268 0.291536,0.56783 0.291534,0.56782 0.186466,0.46531 0.186464,0.46529 0.167562,0.49076 0.167574,0.49076 v 0.15551 0.15551 l -0.251259,0.2698 -0.25127,0.2698 h -1.993701 -1.993712 l -0.285687,-0.30535 -0.285678,-0.30536 -0.03293,-0.1454 -0.03293,-0.14542 -0.140976,-0.51127 -0.140975,-0.51128 -0.211004,-0.56474 -0.211009,-0.56474 -0.309963,-0.61071 -0.309968,-0.61071 -0.05911,-0.0873 -0.0591,-0.0873 -0.09407,0.13356 -0.09408,0.13359 -0.358325,0.41563 -0.358325,0.41566 -0.548809,0.45474 -0.5488,0.45478 -0.222764,0.06 -0.222755,0.06 -0.201756,-0.0558 -0.201754,-0.0558 -0.160858,-0.12656 -0.16087,-0.12657 -0.01748,5.37083 -0.01748,5.37083 0.06678,0.43621 0.06678,0.43623 0.114868,0.26943 0.114869,0.26944 0.155726,0.14487 0.155728,0.14489 0.174487,0.0809 0.174488,0.0809 v 35.44966 35.44965 l -0.0765,0.93061 -0.0765,0.9306 -0.115214,0.89771 -0.115213,0.89771 -0.144013,0.78903 -0.144019,0.78902 -0.260845,1.04695 -0.260851,1.04693 -0.197286,0.61071 -0.197288,0.61072 -0.300476,0.81428 -0.300476,0.81427 -0.548571,1.10511 -0.548571,1.1051 -0.276462,0.40405 -0.276461,0.40408 -0.06753,0.0207 -0.06753,0.0207 z m -0.213851,-7.87947 -0.257827,-0.76063 -0.173394,-0.66889 -0.173393,-0.66886 -0.17747,-0.87245 -0.177472,-0.87245 -0.145094,-1.01785 -0.145092,-1.01786 -0.06257,-0.61072 -0.06257,-0.6107 -0.03622,-0.20357 -0.03621,-0.20359 -0.03491,-32.80401 -0.03491,-32.80402 -0.159316,-0.4653 -0.159317,-0.46531 -0.199979,-0.25003 -0.199978,-0.25004 -0.145566,-0.11445 -0.145567,-0.11457 -0.251262,-0.11407 -0.251256,-0.11406 -0.102709,-10e-4 -0.102723,-0.001 0.01805,35.14509 0.01805,35.14508 0.100872,0.98878 0.100873,0.98876 0.116808,0.81429 0.116808,0.81428 0.176251,0.86677 0.176255,0.86676 0.174138,0.67455 0.174136,0.67456 0.206205,0.66889 0.206209,0.66886 0.34778,0.87247 0.347783,0.87243 0.310496,0.65362 0.310495,0.65361 0.280659,0.47185 0.280665,0.47185 0.01504,-3.273 0.01504,-3.27298 z m 1.241224,5.92813 0.51822,-1.04693 0.202043,-0.52348 0.202035,-0.52346 0.236199,-0.69795 0.236205,-0.69797 0.20369,-0.70857 0.203691,-0.70855 0.202667,-0.94909 0.202671,-0.94909 0.117803,-0.78521 0.117803,-0.7852 0.09248,-0.87244 0.09248,-0.87244 0.05323,-1.68674 0.05323,-1.68673 0.0019,-33.7201 0.0019,-33.72008 h -0.116999 -0.116961 l -0.275643,0.12948 -0.275637,0.12948 -0.233397,0.23405 -0.233397,0.23404 -0.160177,0.31989 -0.160184,0.3199 -0.08526,0.40714 -0.08525,0.40715 -0.0019,31.98973 -0.0019,31.98972 -0.08338,1.01786 -0.08338,1.01785 -0.0932,0.81429 -0.0932,0.81429 -0.116196,0.75613 -0.116183,0.75611 -0.146215,0.72704 -0.146222,0.72704 -0.146472,0.58163 -0.146466,0.58162 -0.286209,0.86851 -0.286204,0.86851 0.0013,3.29016 0.0013,3.29016 0.115456,-0.14541 0.115456,-0.1454 z m -0.437218,-6.96377 0.264852,-0.91482 0.200201,-0.97548 0.200207,-0.9755 0.119449,-0.81429 0.119449,-0.81429 0.127618,-1.13417 0.127616,-1.13419 0.04057,-13.2321 0.04057,-13.23212 0.0087,-19.39742 0.0085,-19.39742 0.08785,-0.37264 0.08783,-0.37265 0.183082,-0.34349 0.183075,-0.34349 0.283588,-0.25497 0.283587,-0.25497 0.319264,-0.11942 0.319267,-0.11942 h 0.08824 0.08825 l -0.01772,-0.26617 -0.01772,-0.26616 -0.34898,-0.11662 -0.348977,-0.11662 -0.253899,-0.19659 -0.253893,-0.1966 -0.143301,-0.19123 -0.143302,-0.19124 -0.133576,-0.26175 -0.133579,-0.26173 -0.06539,-0.30822 -0.0654,-0.30823 v -5.92977 -5.92977 h -0.05036 -0.05037 l -0.727352,1.67219 -0.727356,1.67218 h -0.138087 -0.138037 l -0.75644,-1.73743 -0.756444,-1.73743 -0.02908,6.09967 -0.02908,6.09966 -0.131138,0.34434 -0.131138,0.34433 -0.14192,0.24217 -0.141919,0.24216 -0.233248,0.21072 -0.233253,0.21073 -0.223435,0.11394 -0.223439,0.11393 -0.215405,0.0404 -0.215409,0.0404 v 0.28434 0.28435 H 51.18 51.23599 l 0.319264,0.11942 0.319266,0.11943 0.295125,0.26533 0.295121,0.26534 0.143643,0.24511 0.143644,0.24511 0.131137,0.34433 0.131138,0.34432 0.03273,32.5132 0.03273,32.51321 0.0709,0.75613 0.0709,0.75612 0.116821,0.93061 0.116821,0.93061 0.146481,0.87245 0.146483,0.87244 0.224764,0.9597 0.22477,0.95968 0.185048,0.58164 0.185048,0.58162 0.06485,0.19888 0.06485,0.19888 0.09929,-0.22795 0.09929,-0.22797 z m -3.304628,-75.26438 0.280189,-0.18903 0.193428,-0.27113 0.193429,-0.27111 0.149023,-0.42655 0.149024,-0.42653 0.03278,-5.86025 0.03278,-5.86023 h -0.05365 -0.05368 l -0.304358,0.26625 -0.304358,0.26624 v 5.54245 5.54245 l -0.08633,0.49505 -0.08633,0.49504 -0.109127,0.2546 -0.109128,0.25459 -0.158693,0.18859 -0.158689,0.1886 h 0.05676 0.05676 z m 5.957635,0.0158 -0.124795,-0.12479 -0.110085,-0.25682 -0.110097,-0.25683 -0.08986,-0.43505 -0.08986,-0.43507 -0.0037,-5.62973 -0.0037,-5.62974 -0.345263,-0.31135 -0.345256,-0.31135 0.0013,5.77869 0.0013,5.77868 0.08176,0.38569 0.08176,0.38567 0.143869,0.2832 0.14387,0.28319 0.212482,0.2182 0.212484,0.2182 0.215223,0.11075 0.215223,0.11075 0.01941,-0.0188 0.01941,-0.0188 z m -3.224335,-13.48045 -0.02654,-0.0265 -0.570829,-0.1346 -0.57083,-0.13461 -0.0094,0.009 -0.0094,0.009 0.591087,1.36097 0.591085,1.36099 0.01574,-1.20952 0.01575,-1.20953 z m 0.866522,1.06211 0.553278,-1.27087 -0.02858,-0.0286 -0.02858,-0.0286 -0.334797,0.0721 -0.334796,0.0721 -0.218111,0.0559 -0.218112,0.0559 v 1.19981 1.19978 l 0.02825,-0.0282 0.02821,-0.0282 z m -0.842387,-2.15475 v -0.84533 l -0.450763,0.5325 -0.450765,0.53249 -0.137488,0.17053 -0.137488,0.17049 0.02117,0.0193 0.02117,0.0193 0.494388,0.11674 0.494387,0.11687 0.0727,0.006 0.07271,0.006 z m 0.945152,0.69071 0.450761,-0.0979 v -0.0412 -0.0412 l -0.09729,-0.0798 -0.09727,-0.0797 -0.433074,-0.52348 -0.433074,-0.52346 -0.05128,-0.0552 -0.05128,-0.0553 v 0.8327 0.8327 l 0.130869,-0.0351 0.130868,-0.0352 z m -2.515525,-32.44581 v -0.0291 h -0.02908 -0.02908 v 0.0291 0.0291 h 0.02908 0.02908 z"
       id="path5"
       sodipodi:nodetypes="ccccccccccccccccccccccccccccccccccccccccccccccccccccccccccccccccccccccccccccccccccccccccccccccccccccccccccccccccccccccccccccccccccccccccccccccccccccccccccccccccccccccccccccccccccccccccccccccccccccccccccccccccccccccccccccccccccccccccccccccccccccccccccccccccccccccccccccccccccccccccccccccccccccccccccccccccccccccccccccccccccccccccccccccccccccccccccccccccccccccccccccccccccccccccccccccccccccccccccccccccccccccccccccccccccccccccccccccccccccccccccccccccccccccccccccccccccccccccccccccccccccccccccccccccccccccccccccccccccccccccccccccccccccccc" /><path
       style="fill:#000000;fill-opacity:1;stroke:#000000;stroke-width:1.465;stroke-linecap:round;stroke-linejoin:round;stroke-dasharray:none;stroke-opacity:1;paint-order:stroke fill markers"
       d="m 93.685076,171.75597 c -10.633096,16.84144 -12.75158,77.81066 -12.75158,77.81066 h 6.245672 c 0,0 -0.946311,-42.80956 11.450397,-74.42759 0.728962,-1.85923 -3.878348,-5.0717 -4.944489,-3.38307 z"
       id="path8"
       sodipodi:nodetypes="sccss" /><path
       style="fill:#000000;fill-opacity:1;stroke:#000000;stroke-width:1.465;stroke-linecap:round;stroke-linejoin:round;stroke-dasharray:none;stroke-opacity:1;paint-order:stroke fill markers"
       d="m 112.21448,170.25742 c 10.63309,16.84144 12.75158,77.81066 12.75158,77.81066 h -6.24567 c 0,0 0.94631,-42.80956 -11.4504,-74.42759 -0.72896,-1.85923 3.87835,-5.0717 4.94449,-3.38307 z"
       id="path8-7"
       sodipodi:nodetypes="sccss" /></g></svg>
