<?xml version="1.0" encoding="UTF-8" standalone="no"?>
<!-- Created with Inkscape (http://www.inkscape.org/) -->

<svg
   width="210mm"
   height="297mm"
   viewBox="0 0 210 297"
   version="1.1"
   id="svg1"
   xml:space="preserve"
   inkscape:version="1.4.2 (f4327f4, 2025-05-13)"
   sodipodi:docname="scientist.svg"
   xmlns:inkscape="http://www.inkscape.org/namespaces/inkscape"
   xmlns:sodipodi="http://sodipodi.sourceforge.net/DTD/sodipodi-0.dtd"
   xmlns="http://www.w3.org/2000/svg"
   xmlns:svg="http://www.w3.org/2000/svg"><sodipodi:namedview
     id="namedview1"
     pagecolor="#ffffff"
     bordercolor="#000000"
     borderopacity="0.25"
     inkscape:showpageshadow="2"
     inkscape:pageopacity="0.0"
     inkscape:pagecheckerboard="0"
     inkscape:deskcolor="#d1d1d1"
     inkscape:document-units="mm"
     showguides="false"
     inkscape:zoom="1.4142136"
     inkscape:cx="172.88761"
     inkscape:cy="926.66343"
     inkscape:window-width="1920"
     inkscape:window-height="1009"
     inkscape:window-x="-8"
     inkscape:window-y="-8"
     inkscape:window-maximized="1"
     inkscape:current-layer="g37" /><defs
     id="defs1" /><g
     inkscape:label="Layer 1"
     inkscape:groupmode="layer"
     id="layer1" /><g
     inkscape:groupmode="layer"
     id="layer9"
     inkscape:label="Pelo 1"
     style="display:inline" /><path
     style="fill:#000000;fill-opacity:1;stroke:none;stroke-width:0.793001;stroke-linecap:square;stroke-linejoin:round;stroke-miterlimit:1.9;stroke-dasharray:none;stroke-opacity:1;paint-order:stroke fill markers"
     d="m 111.82253,170.7258 c 8.53906,0 37.23203,30.27892 37.23203,30.27892 l 5.43637,-8.45315 c 0,0 -35.00754,-20.94192 -39.0251,-26.77026 -1.16191,-1.68561 -7.07411,4.94449 -3.64331,4.94449 z"
     id="path31-9"
     sodipodi:nodetypes="sccsss" /><g
     inkscape:groupmode="layer"
     id="layer2"
     inkscape:label="Mascota real"
     style="display:inline"><g
       inkscape:groupmode="layer"
       id="layer5"
       inkscape:label="Pelo"
       style="display:inline"><path
         style="opacity:1;fill:#c5c5c5;fill-opacity:1;stroke:#000000;stroke-width:2.70000007;stroke-linecap:square;stroke-linejoin:round;stroke-miterlimit:1.9;stroke-dasharray:none;stroke-opacity:1;paint-order:stroke fill markers"
         d="m 125.17367,106.95713 36.69332,-26.023635 -10.14921,20.298435 39.29568,-10.149217 -30.44765,17.956307 37.9945,18.47678 -38.51497,-3.12284 24.20198,18.21654 -54.64963,-13.01181 5.7252,-14.313 z"
         id="path26" /><path
         style="display:inline;fill:#c5c5c5;fill-opacity:1;stroke:#000000;stroke-width:2.7;stroke-linecap:square;stroke-linejoin:round;stroke-miterlimit:1.9;stroke-dasharray:none;stroke-opacity:1;paint-order:stroke fill markers"
         d="m 77.321951,107.16508 -36.69332,-26.023639 10.14921,20.298439 -39.29568,-10.149221 30.44765,17.956311 -37.9944997,18.47678 38.5149697,-3.12284 -24.20198,18.21654 54.64963,-13.01181 -5.7252,-14.313 z"
         id="path26-0" /></g><g
       inkscape:groupmode="layer"
       id="layer11"
       inkscape:label="Sombras"
       style="display:inline"><path
         style="opacity:1;mix-blend-mode:normal;fill:#5a5a5a;fill-opacity:0.0680851;stroke:none;stroke-width:1.412;stroke-linecap:square;stroke-linejoin:round;stroke-miterlimit:1.9;stroke-dasharray:none;stroke-opacity:1;paint-order:stroke fill markers"
         d="m 73.686457,104.11354 -24.473958,-12.964583 8.73125,14.419793 -30.294791,-8.59896 21.695833,16.13958 -34.660416,10.84792 37.173958,-2.64583 -23.8125,15.7427 41.010416,-10.84791 z"
         id="path48"
         sodipodi:nodetypes="cccccccccc" /><path
         style="display:inline;mix-blend-mode:normal;fill:#5a5a5a;fill-opacity:0.0680851;stroke:none;stroke-width:1.412;stroke-linecap:square;stroke-linejoin:round;stroke-miterlimit:1.9;stroke-dasharray:none;stroke-opacity:1;paint-order:stroke fill markers"
         d="m 130.96874,104.37813 24.47396,-12.96459 -8.73125,14.4198 30.29478,-8.598962 -21.69583,16.139582 34.66042,10.84792 -37.17396,-2.64583 23.8125,15.7427 -41.01041,-10.84791 z"
         id="path48-6"
         sodipodi:nodetypes="cccccccccc" /></g><path
       style="display:inline;fill:#000000;stroke-width:1.52205"
       d="m 90.696185,213.78688 -0.20045,-0.54126 -16.00729,-51.77166 -16.00729,-51.77168 v -2.82308 -2.82306 h 41.935045 41.93501 v 2.75832 2.75831 l -20.07152,52.37769 -20.07151,52.37767 h -5.655805 -5.65574 z m 23.713055,-57.13808 14.49112,-39.43734 v -0.22369 -0.2237 H 101.95634 75.012275 l 0.21375,0.5772 0.21375,0.5772 11.97512,39.39003 11.97511,39.39001 0.26407,-0.30619 0.264044,-0.30619 z"
       id="path2" /></g><path
     style="display:inline;opacity:1;fill:#c5c5c5;fill-opacity:1;stroke:#000000;stroke-width:2.20799;stroke-linecap:square;stroke-linejoin:round;stroke-miterlimit:1.9;stroke-dasharray:none;stroke-opacity:1;paint-order:stroke fill markers"
     d="m 98.903069,164.02259 c -0.401393,0.11284 -12.443197,9.25233 -12.443197,9.25233 l 2.006967,-9.02666 -11.439714,6.77 3.512192,-8.4625 -15.95539,14.78116 3.913586,-12.75015 c 0,0 9.332398,-5.86734 9.834141,-5.64167 0.501741,0.22566 20.571415,5.07749 20.571415,5.07749 z"
     id="path27" /><path
     style="display:inline;fill:#c5c5c5;fill-opacity:1;stroke:#000000;stroke-width:2.14182;stroke-linecap:square;stroke-linejoin:round;stroke-miterlimit:1.9;stroke-dasharray:none;stroke-opacity:1;paint-order:stroke fill markers"
     d="m 102.50724,164.06425 c 0.37634,0.11324 11.66651,9.28567 11.66651,9.28567 l -1.88169,-9.05918 10.72566,6.79438 -3.29296,-8.49298 14.95946,14.83442 -3.6693,-12.7961 c 0,0 -8.74987,-5.88848 -9.2203,-5.66199 -0.47043,0.22647 -19.28738,5.09578 -19.28738,5.09578 z"
     id="path27-6" /><g
     inkscape:groupmode="layer"
     id="layer10"
     inkscape:label="Sombra Pelo" /><g
     inkscape:groupmode="layer"
     id="layer4"
     inkscape:label="Grieta"
     style="stroke-width:0.7;stroke-dasharray:none;stroke:none;stroke-opacity:1;fill:#000000;fill-opacity:1" /><path
     style="opacity:1;fill:#c5c5c5;fill-opacity:1;stroke:#000000;stroke-width:2.69999;stroke-linecap:square;stroke-linejoin:round;stroke-miterlimit:1.9;stroke-dasharray:none;stroke-opacity:1;paint-order:stroke fill markers"
     d="m 73.237918,130.09851 5.704461,-9.20074 6.256504,3.12825 6.440522,-4.04833 5.520447,4.41636 -0.184018,4.9684 -9.752788,-3.6803 -0.36803,4.04833 c 0,0 -8.280667,-4.04833 -7.728622,-3.12825 0.552043,0.92007 0.368028,5.15242 0.368028,5.15242 z"
     id="path28" /><path
     style="fill:#c5c5c5;fill-opacity:1;stroke:#000000;stroke-width:2.69999;stroke-linecap:square;stroke-linejoin:round;stroke-miterlimit:1.9;stroke-dasharray:none;stroke-opacity:1;paint-order:stroke fill markers"
     d="m 129.08208,130.20204 -5.70446,-9.20074 -6.25651,3.12825 -6.44052,-4.04833 -5.52045,4.41636 0.18402,4.9684 9.75279,-3.6803 0.36803,4.04833 c 0,0 8.28066,-4.04833 7.72862,-3.12825 -0.55204,0.92007 -0.36803,5.15242 -0.36803,5.15242 z"
     id="path28-9" /><path
     style="display:inline;opacity:1;fill:#494949;fill-opacity:0.06808507;stroke:none;stroke-width:1.412;stroke-linecap:square;stroke-linejoin:round;stroke-miterlimit:1.9;stroke-dasharray:none;stroke-opacity:1;paint-order:stroke fill markers"
     d="m 75.490278,124.41396 -3.086965,5.8933 7.483546,2.24506 0.374179,-4.95785 7.015824,2.61924 0.748356,-3.46114 9.26089,3.27405 0.420949,-5.94006 c 0,0 -3.554685,1.73057 -4.162724,1.54348 -0.608039,-0.18709 -6.501331,-1.63703 -6.501331,-1.63703 l -3.601458,2.47893 z"
     id="path49"
     inkscape:label="path49" /><path
     style="display:inline;fill:#494949;fill-opacity:0.0680851;stroke:none;stroke-width:1.412;stroke-linecap:square;stroke-linejoin:round;stroke-miterlimit:1.9;stroke-dasharray:none;stroke-opacity:1;paint-order:stroke fill markers"
     d="m 125.67437,124.79667 3.08697,5.8933 -7.48355,2.24506 -0.37418,-4.95785 -7.01582,2.61924 -0.74836,-3.46114 -9.26089,3.27405 -0.42095,-5.94006 c 0,0 3.55469,1.73057 4.16273,1.54348 0.60804,-0.18709 6.50133,-1.63703 6.50133,-1.63703 l 3.60146,2.47893 z"
     id="path49-5"
     inkscape:label="path49" /><path
     style="opacity:1;fill:#000000;fill-opacity:1;stroke:none;stroke-width:2.69999;stroke-linecap:square;stroke-linejoin:round;stroke-miterlimit:1.9;stroke-dasharray:none;stroke-opacity:1;paint-order:stroke fill markers"
     d="m 88.854526,209.3777 c -6.157484,6.60457 -15.988356,53.20074 -15.988356,53.20074 0,0 7.416033,-5.90525 7.936505,-6.9462 0.520473,-1.04094 4.761942,-37.78759 14.964291,-45.3613 2.614471,-1.94085 -4.692028,-3.27487 -6.91244,-0.89324 z"
     id="path29"
     sodipodi:nodetypes="scsss" /><path
     style="fill:#000000;fill-opacity:1;stroke:none;stroke-width:2.69999;stroke-linecap:square;stroke-linejoin:round;stroke-miterlimit:1.9;stroke-dasharray:none;stroke-opacity:1;paint-order:stroke fill markers"
     d="m 103.11411,203.42253 c 7.19843,10.24788 7.75645,57.31669 7.75645,57.31669 0,0 -7.04186,2.70083 -7.56233,1.65988 -0.52047,-1.04094 4.03967,-42.86431 -4.861497,-54.34156 -1.995496,-2.57301 2.795767,-7.29949 4.667377,-4.63501 z"
     id="path29-6"
     sodipodi:nodetypes="scsss" /><g
     id="g37"><path
       style="opacity:1;fill:#ffffff;fill-opacity:1;stroke:none;stroke-width:1.412;stroke-linecap:square;stroke-linejoin:round;stroke-miterlimit:1.9;stroke-dasharray:none;stroke-opacity:1;paint-order:stroke fill markers"
       d="m 11.131776,241.34438 1.122532,8.09158 26.519818,8.04482 -0.561266,-4.5369 -0.654809,-2.75956 -2.57247,-0.65481 -2.712786,0.23386 z"
       id="path60" /><path
       style="opacity:1;fill:#ffffff;fill-opacity:1;stroke:none;stroke-width:1.412;stroke-linecap:square;stroke-linejoin:round;stroke-miterlimit:1.9;stroke-dasharray:none;stroke-opacity:1;paint-order:stroke fill markers"
       d="m 8.8399394,231.33514 0.6080382,7.99804 c 0,0 21.3748794,9.82215 21.5619694,9.86892 0.187089,0.0468 1.917657,0.14032 1.777341,-0.0468 -0.140317,-0.18709 -1.075759,-7.34323 -1.075759,-7.34323 l -1.590254,-2.38538 -5.799748,-0.32741 -4.677217,-0.0935 -8.231901,-6.68842 z"
       id="path59" /><path
       style="opacity:1;fill:#ffffff;fill-opacity:1;stroke:none;stroke-width:1.412;stroke-linecap:square;stroke-linejoin:round;stroke-miterlimit:1.9;stroke-dasharray:none;stroke-opacity:1;paint-order:stroke fill markers"
       d="m 7.904496,225.16121 0.8886714,3.50791 4.8643056,3.64823 6.548103,7.0626 0.327405,-5.00462 -7.015825,-5.75298 z"
       id="path58" /><path
       style="opacity:1;fill:#ffffff;fill-opacity:1;stroke:none;stroke-width:1.412;stroke-linecap:square;stroke-linejoin:round;stroke-miterlimit:1.9;stroke-dasharray:none;stroke-opacity:1;paint-order:stroke fill markers"
       d="m 4.2333333,215.37083 c 0.066146,1.32292 1.1244791,8.53281 1.1244791,8.53281 l 6.4822916,1.98438 16.073437,6.81302 -0.661458,-8.20208 -2.315104,-2.11667 -3.439583,-0.19844 c 0,0 -1.785938,-0.79375 -2.050521,-0.92604 -0.264584,-0.13229 -4.696354,-2.24896 -4.696354,-2.24896 l -3.902604,-1.71979 -5.7546879,-2.38125 z"
       id="path57" /><path
       style="opacity:1;fill:#a9a9a9;fill-opacity:1;stroke:none;stroke-width:1.412;stroke-linecap:square;stroke-linejoin:round;stroke-miterlimit:1.9;stroke-dasharray:none;stroke-opacity:1;paint-order:stroke fill markers"
       d="m 37.043555,250.46495 1.403165,1.35639 -0.23386,4.39659 0.374177,0.56126 17.492792,-18.56854 -0.37418,-2.89988 -11.786584,9.58829 z"
       id="path56" /><path
       style="opacity:1;fill:#a9a9a9;fill-opacity:1;stroke:none;stroke-width:1.412;stroke-linecap:square;stroke-linejoin:round;stroke-miterlimit:1.9;stroke-dasharray:none;stroke-opacity:1;paint-order:stroke fill markers"
       d="m 31.05672,240.26862 1.075759,2.19829 0.09354,7.01583 25.584375,-15.48159 0.327406,-2.61924 -1.028989,-1.07576 -14.49937,4.39658 c 0,0 -4.490127,2.80633 -4.77076,3.04019 -0.280633,0.23386 -6.781964,2.5257 -6.781964,2.5257 z"
       id="path55" /><path
       style="opacity:1;fill:#a9a9a9;fill-opacity:1;stroke:none;stroke-width:1.412;stroke-linecap:square;stroke-linejoin:round;stroke-miterlimit:1.9;stroke-dasharray:none;stroke-opacity:1;paint-order:stroke fill markers"
       d="m 19.971715,234.23501 5.893293,-0.70158 c 0,0 1.449937,-0.23386 1.73057,-0.14032 0.280633,0.0935 5.846522,-2.0112 5.846522,-2.0112 l 28.203615,-7.0626 -0.514493,5.33203 -40.878874,10.14956 z"
       id="path54" /><path
       style="opacity:1;fill:#a9a9a9;fill-opacity:1;stroke:none;stroke-width:1.412;stroke-linecap:square;stroke-linejoin:round;stroke-miterlimit:1.9;stroke-dasharray:none;stroke-opacity:1;paint-order:stroke fill markers"
       d="m 26.285957,223.00969 1.543481,4.91108 c 0,0 0.09355,5.75297 0.18709,5.47234 0.09354,-0.28063 31.243806,-12.90912 31.243806,-12.90912 l 0.140317,-5.75297 z"
       id="path53" /><path
       style="opacity:1;fill:#ffffff;fill-opacity:1;stroke:none;stroke-width:1.412;stroke-linecap:square;stroke-linejoin:round;stroke-miterlimit:1.9;stroke-dasharray:none;stroke-opacity:1;paint-order:stroke fill markers"
       d="m 6.735192,209.53931 1.0289876,3.74177 12.6284854,8.13836 41.627229,-7.67064 v -3.08696 l -2.245064,-0.28064 -40.411153,7.10937 z"
       id="path51" /><path
       style="opacity:1;fill:#a9a9a9;fill-opacity:1;stroke:none;stroke-width:1.412;stroke-linecap:square;stroke-linejoin:round;stroke-miterlimit:1.9;stroke-dasharray:none;stroke-opacity:1;paint-order:stroke fill markers"
       d="m 20.626525,216.97608 0.04677,5.42557 3.086963,-1.77734 38.914442,-7.20291 -0.420949,-3.18051 z"
       id="path52" /><path
       style="opacity:1;fill:#677dff;fill-opacity:1;stroke:none;stroke-width:1.412;stroke-linecap:square;stroke-linejoin:round;stroke-miterlimit:1.9;stroke-dasharray:none;stroke-opacity:1;paint-order:stroke fill markers"
       d="m 33.769503,249.2021 c 1.543482,-1.35639 13.189752,-8.32544 13.189752,-8.32544 l -1.637025,2.52569 -6.781964,6.59488 z"
       id="path44" /><path
       style="opacity:1;fill:#67ff75;fill-opacity:1;stroke:none;stroke-width:1.412;stroke-linecap:square;stroke-linejoin:round;stroke-miterlimit:1.9;stroke-dasharray:none;stroke-opacity:1;paint-order:stroke fill markers"
       d="m 10.243104,231.00773 c 0.187089,-0.0468 3.22728,2.47893 3.22728,2.47893 l -1.122532,-2.38538 z"
       id="path42" /><path
       style="opacity:1;fill:#67ff75;fill-opacity:1;stroke:none;stroke-width:1.412;stroke-linecap:square;stroke-linejoin:round;stroke-miterlimit:1.9;stroke-dasharray:none;stroke-opacity:1;paint-order:stroke fill markers"
       d="m 24.742476,238.53805 20.299121,-5.33203 -3.227279,2.19829 -9.447979,5.00463 z"
       id="path43" /><path
       style="opacity:1;fill:#67d6ff;fill-opacity:1;stroke:none;stroke-width:1.412;stroke-linecap:square;stroke-linejoin:round;stroke-miterlimit:1.9;stroke-dasharray:none;stroke-opacity:1;paint-order:stroke fill markers"
       d="m 34.424315,230.63355 23.011905,-9.30766 4.583674,2.66602 z"
       id="path41" /><path
       style="opacity:1;fill:#67d6ff;fill-opacity:1;stroke:none;stroke-width:1.412;stroke-linecap:square;stroke-linejoin:round;stroke-miterlimit:1.9;stroke-dasharray:none;stroke-opacity:1;paint-order:stroke fill markers"
       d="m 9.2608891,224.97412 10.7108259,9.58829 9.260888,-1.4967 z"
       id="path40" /><path
       style="opacity:1;fill:#ffeb67;fill-opacity:1;stroke:none;stroke-width:1.412;stroke-linecap:square;stroke-linejoin:round;stroke-miterlimit:1.9;stroke-dasharray:none;stroke-opacity:1;paint-order:stroke fill markers"
       d="m 22.123235,221.04526 c 0.841899,0 25.069882,-4.49013 25.069882,-4.49013 l -5.752978,2.5257 -13.844561,4.11595 -4.911077,-1.35639 z"
       id="path39" /><path
       style="opacity:1;fill:#ffeb67;fill-opacity:1;stroke:none;stroke-width:1.412;stroke-linecap:square;stroke-linejoin:round;stroke-miterlimit:1.9;stroke-dasharray:none;stroke-opacity:1;paint-order:stroke fill markers"
       d="m 4.770761,214.87133 c 0.5612659,0.32741 12.113991,5.00462 12.113991,5.00462 l -1.590254,-2.10474 -7.6238627,-5.00463 z"
       id="path38" /><path
       style="opacity:1;fill:#ff6767;fill-opacity:1;stroke:none;stroke-width:1.412;stroke-linecap:square;stroke-linejoin:round;stroke-miterlimit:1.9;stroke-dasharray:none;stroke-opacity:1;paint-order:stroke fill markers"
       d="m 6.9222807,208.8845 13.3768393,8.69962 42.656216,-8.18513 -17.492789,-5.61266 z"
       id="path37" /><path
       style="fill:none;stroke-width:0.793;stroke:#000000;stroke-opacity:1;stroke-dasharray:none"
       d="m 33.449259,256.29042 c -2.242595,-0.77273 -7.817721,-2.68504 -12.389166,-4.24956 -4.571446,-1.56451 -8.60668,-2.94564 -8.967186,-3.06916 -0.920799,-0.31549 -1.865554,-6.75154 -1.108814,-7.55367 0.152745,-0.16192 0.153885,-0.22329 0.0052,-0.27796 -0.104981,-0.0386 -0.443325,-0.24148 -0.751883,-0.45087 -0.3085566,-0.20939 -0.6595706,-0.38072 -0.7800301,-0.38072 -1.0484031,0 -1.5204591,-9.43989 -0.4963103,-9.9249 0.6603998,-0.31275 0.7883368,-0.0931 -1.4090111,-2.41889 -0.098661,-0.10448 -0.2298832,-0.89533 -0.2915946,-1.75755 -0.1122015,-1.56767 -0.1122015,-1.56767 -0.6321127,-1.73925 -0.2859502,-0.0944 -0.6047658,-0.27383 -0.7084799,-0.3988 -0.1037108,-0.12498 -0.3225864,-0.22721 -0.4863824,-0.22721 -0.4720121,0 -0.5739831,-0.48255 -0.9113625,-4.31269 -0.1747473,-1.98383 -0.3518755,-3.90365 -0.3936207,-4.26627 -0.1033621,-0.89781 0.096277,-1.05231 1.8868263,-1.46021 1.5045561,-0.34275 1.5045561,-0.34275 1.1770564,-0.69136 -0.3868562,-0.41179 -0.8348964,-4.50471 -0.5268399,-4.81277 0.089192,-0.0892 8.8609315,-1.28533 19.4927515,-2.65809 19.330579,-2.49593 19.330579,-2.49593 26.640904,-0.0734 4.020679,1.33235 7.804322,2.57449 8.4081,2.76031 2.845319,0.87569 3.648869,1.53008 2.210245,1.79997 -0.586572,0.10998 -0.609132,0.16677 -0.808618,2.03361 -0.100821,0.94344 -0.100821,0.94344 0.464168,1.21286 1.161104,0.55369 0.73237,0.91204 -1.620004,1.35406 -2.147937,0.40359 -1.917788,0.19614 -2.063551,1.86019 -0.24668,2.81619 -0.206268,3.24044 0.327925,3.44207 0.763902,0.28833 0.587395,0.6417 -0.588095,1.17732 -1.058568,0.48235 -1.058568,0.48235 1.17619,1.54794 2.499529,1.19183 2.873181,1.63564 1.702403,2.02203 -0.633047,0.20892 -0.68769,0.36696 -0.815261,2.35783 -0.09547,1.48984 -0.09547,1.48984 0.390836,1.75699 1.089444,0.59849 0.634872,1.06517 -1.577512,1.61953 -1.663757,0.41691 -1.663757,0.41691 -1.758558,0.99018 -0.195128,1.17997 -0.129369,1.55083 0.293809,1.65705 0.843266,0.21165 0.512669,0.74929 -1.097775,1.78528 -1.59208,1.02419 -2.149362,2.17554 -1.176187,2.43003 0.713724,0.18664 0.329487,0.74114 -2.940466,4.24348 -1.789763,1.91695 -4.488333,4.82365 -5.996818,6.45932 -1.508487,1.63566 -3.277441,3.53851 -3.93101,4.22853 -0.653569,0.69004 -1.953498,2.10146 -2.888729,3.13651 -2.01922,2.23471 -2.067318,2.27688 -2.582257,2.26363 -0.220711,-0.006 -2.236146,-0.64257 -4.478742,-1.4153 z m 5.597611,0.0585 c 0.457715,-0.49315 1.85755,-1.99279 3.110742,-3.33252 2.95274,-3.15667 10.089388,-10.81846 12.332733,-13.24025 0.963394,-1.04003 1.715177,-1.94992 1.670631,-2.02201 -0.04455,-0.0721 -0.621063,0.45471 -1.28115,1.17064 -6.487367,7.03614 -16.727484,17.85031 -16.902763,17.85031 -0.09821,0 -4.153096,-1.34291 -9.010847,-2.98424 -4.857751,-1.64134 -8.927484,-2.94772 -9.043851,-2.90306 -0.116366,0.0447 -0.175274,0.0225 -0.130906,-0.0494 0.109514,-0.17718 -0.971781,-0.49621 -1.280419,-0.37778 -0.176619,0.0678 -0.210236,0.0355 -0.118174,-0.11346 0.09652,-0.15617 0.04413,-0.18606 -0.209727,-0.11968 -0.216836,0.0567 -0.301337,0.0286 -0.235237,-0.0784 0.06609,-0.10695 -0.0184,-0.13511 -0.235238,-0.0784 -0.186114,0.0487 -0.298841,0.0245 -0.250506,-0.0537 0.08818,-0.14268 -0.233664,-0.21323 -0.763067,-0.16729 -0.155954,0.0135 -0.243518,-0.0402 -0.194586,-0.11933 0.116378,-0.1883 -0.950418,-0.53927 -1.189686,-0.39138 -0.123059,0.076 -0.141948,0.0455 -0.05695,-0.092 0.09474,-0.15329 0.04088,-0.18319 -0.211222,-0.11727 -0.216837,0.0567 -0.301336,0.0286 -0.235238,-0.0784 0.06672,-0.10797 -0.02174,-0.13425 -0.250533,-0.0745 -0.194527,0.0508 -0.309611,0.0485 -0.255742,-0.006 0.0897,-0.0896 -1.686276,-0.81314 -2.010923,-0.81914 -1.079842,-0.02 1.693588,1.07275 9.323197,3.67345 4.782446,1.63019 10.28321,3.51061 12.223919,4.17874 4.338457,1.49359 4.150484,1.48116 5.205549,0.3444 z m -22.926762,-6.70934 c 0,-0.0432 0.03529,-0.0784 0.07841,-0.0784 0.04313,0 0.07841,0.0353 0.07841,0.0784 0,0.0432 -0.03529,0.0784 -0.07841,0.0784 -0.04313,0 -0.07841,-0.0353 -0.07841,-0.0784 z m -0.627299,-0.15682 c 0,-0.0432 0.03529,-0.0784 0.07841,-0.0784 0.04313,0 0.07841,0.0353 0.07841,0.0784 0,0.0432 -0.03529,0.0784 -0.07841,0.0784 -0.04313,0 -0.07841,-0.0353 -0.07841,-0.0784 z m -1.829624,-0.65344 c 0.0575,-0.0575 0.151598,-0.0575 0.2091,0 0.0575,0.0575 0.01046,0.10459 -0.104554,0.10459 -0.115004,0 -0.162052,-0.047 -0.104555,-0.10459 z m -0.470474,-0.15682 c 0.0575,-0.0575 0.151597,-0.0575 0.2091,0 0.0575,0.0575 0.01046,0.10459 -0.104554,0.10459 -0.115005,0 -0.162052,-0.0471 -0.104554,-0.10459 z m -0.365926,-0.13069 c 0,-0.0432 0.03529,-0.0784 0.07841,-0.0784 0.04313,0 0.07842,0.0353 0.07842,0.0784 0,0.0432 -0.03529,0.0784 -0.07842,0.0784 -0.04313,0 -0.07841,-0.0353 -0.07841,-0.0784 z m 25.013571,4.93987 c 0,-2.97979 0,-2.97979 -1.411811,-3.45015 -1.772908,-0.59065 -1.673029,-0.59869 -2.965753,0.23871 -1.37983,0.89383 -0.360779,1.21239 -8.785318,-2.74624 -6.132901,-2.88181 -7.755143,-3.57772 -9.870336,-4.23427 -3.088505,-0.95865 -2.933941,-0.95217 -2.840689,-0.11917 0.04104,0.36657 0.147277,1.5445 0.236089,2.6176 0.08881,1.07309 0.178895,1.96851 0.200185,1.9898 0.02129,0.0213 5.506468,1.87971 12.189284,4.12982 10.174248,3.42567 13.248349,4.48041 13.248349,4.54562 0,0.005 0,-1.33282 0,-2.97172 z m 9.566319,-7.05034 c 10.861971,-11.52629 11.253108,-12.37762 3.338525,-7.26644 -2.47634,1.59918 -2.800668,1.86973 -5.883174,4.9074 -1.794296,1.76821 -4.055272,3.98395 -5.024393,4.92388 -1.76204,1.70896 -1.76204,1.70896 -1.755353,4.54792 0.0066,2.83895 0.0066,2.83895 0.588094,2.18991 0.319774,-0.35696 4.251109,-4.54316 8.736301,-9.30267 z m -15.196764,3.92662 c 0.120992,0.10042 0.219987,0.11512 0.219987,0.0326 0,-0.0824 0.08922,-0.14989 0.198284,-0.14989 0.109052,0 0.593532,-0.26243 1.076611,-0.58318 1.077412,-0.71536 1.117768,-0.71602 2.959377,-0.0485 1.489836,0.54003 1.489836,0.54003 5.097071,-3.00805 3.430735,-3.37449 4.326941,-4.30724 3.881154,-4.03943 -0.510971,0.30699 -0.116767,-0.0671 0.470474,-0.44644 0.366579,-0.23681 0.87822,-0.66118 1.136982,-0.94305 0.25876,-0.28187 1.952469,-1.45086 3.763796,-2.59774 5.392717,-3.41451 6.665059,-4.25652 6.665059,-4.41083 0,-0.0806 0.07057,-0.1029 0.156824,-0.0496 0.08626,0.0533 0.156825,0.018 0.156825,-0.0784 0,-0.0964 0.05593,-0.14078 0.12427,-0.0985 0.06835,0.0423 0.135796,-0.0763 0.149883,-0.26322 0.01409,-0.18701 -0.02419,-0.26155 -0.08507,-0.16565 -0.131849,0.20771 -7.6375,5.00174 -22.066162,14.09416 -1.121297,0.70661 -2.387753,1.507 -2.814345,1.77865 -1.060351,0.67522 -0.378302,0.91287 -9.427173,-3.28489 -4.480145,-2.07833 -9.18709,-4.25931 -10.459879,-4.84663 -1.488813,-0.68699 -2.439654,-1.04035 -2.666024,-0.99076 -0.248655,0.0544 -0.291119,0.0338 -0.144772,-0.0703 0.156162,-0.11111 0.07803,-0.20855 -0.317753,-0.39636 -0.6031483,-0.28621 -0.7766609,-1.20789 -1.1279977,-5.99177 -0.2069919,-2.81844 -0.3128731,-2.71705 1.8858627,-1.80593 1.548348,0.64161 1.548348,0.64161 5.351351,4.43749 2.091652,2.08772 3.803004,3.70819 3.803004,3.60103 0,-0.10717 0.07813,-0.19483 0.173602,-0.19483 0.09548,0 0.132983,0.10583 0.08333,0.23524 -0.120178,0.31318 -0.306449,0.34631 3.428447,-0.60973 3.523986,-0.90205 4.175482,-0.95583 5.221145,-0.431 0.319758,0.16049 1.056967,0.44816 1.638242,0.63928 0.581275,0.19111 1.104492,0.42454 1.162706,0.51873 0.06428,0.10403 0.01876,0.13651 -0.115916,0.0828 -0.121966,-0.0487 -0.592256,-0.23605 -1.045088,-0.41643 -1.026863,-0.409 -1.083587,-0.30642 -0.07841,0.14182 0.870189,0.38803 1.854789,0.54398 1.995644,0.31607 0.05939,-0.096 -0.01376,-0.12316 -0.184012,-0.068 -0.221368,0.0716 -0.234706,0.0573 -0.06157,-0.0657 0.121561,-0.0864 0.327208,-0.11635 0.456997,-0.0666 0.152582,0.0586 0.196297,0.0263 0.123695,-0.0911 -0.07566,-0.12243 -0.02453,-0.14801 0.156823,-0.0784 0.181357,0.0696 0.232495,0.0441 0.156825,-0.0784 -0.07567,-0.12243 -0.02453,-0.148 0.156825,-0.0784 0.197033,0.0756 0.234727,0.0477 0.14074,-0.10448 -0.07706,-0.12467 -0.06716,-0.16988 0.02476,-0.11307 0.08422,0.0521 1.806477,-0.82602 3.827235,-1.95128 5.489399,-3.05678 5.567326,-3.09501 7.188881,-3.52721 2.973083,-0.79243 8.598412,-2.26474 10.493976,-2.74656 1.328109,-0.33758 1.868079,-0.53667 1.725073,-0.63604 -0.143578,-0.0998 -0.103497,-0.11537 0.129189,-0.0503 0.478556,0.13382 2.494889,-0.38848 2.223576,-0.57599 -0.13453,-0.093 -0.01375,-0.10953 0.34033,-0.0467 0.322916,0.0574 0.469272,0.042 0.355492,-0.0373 -0.129568,-0.0903 0.09192,-0.23174 0.671185,-0.42864 0.482375,-0.16396 0.786086,-0.34238 0.687019,-0.40361 -0.09765,-0.0604 -0.364401,-0.0186 -0.592766,0.0929 -0.228371,0.11144 -3.485062,0.98983 -7.237098,1.95199 -3.752035,0.96215 -12.56687,3.22955 -19.588523,5.03866 -7.021649,1.80912 -12.888234,3.2682 -13.03685,3.24241 -0.923481,-0.16024 -12.6970527,-12.25436 -12.6991613,-13.04491 -0.00259,-0.95434 -0.1314086,-1.50828 -0.3508712,-1.50828 -0.3736973,0 -0.025787,2.1888 0.4222429,2.65644 0.2328702,0.24307 0.440457,0.55815 0.4613026,0.70017 0.02085,0.14203 0.6971248,0.93016 1.502842,1.75141 1.669287,1.70147 1.760586,2.15383 0.296277,1.46799 -0.44718,-0.20946 -0.960219,-0.36522 -1.1400844,-0.34614 -0.204492,0.0217 -0.1292168,-0.0549 0.2008932,-0.20423 0.2903586,-0.1314 0.5667632,-0.20007 0.6142312,-0.1526 0.04747,0.0475 -1.92e-4,0.0863 -0.105915,0.0863 -0.1057235,0 -0.1486023,0.0705 -0.095298,0.15683 0.053306,0.0863 0.255072,0.15682 0.448365,0.15682 0.193292,0 0.436715,0.07 0.540938,0.15551 0.104228,0.0856 -0.04312,-0.0923 -0.327417,-0.39536 -1.6205886,-1.72712 -2.2934018,1.39156 -1.4607591,6.77104 0.2948345,1.90484 0.2948345,1.90484 0.7820907,2.04458 0.2679914,0.0769 0.4872554,0.23518 0.4872554,0.35181 0,0.11665 0.917427,0.65982 2.038725,1.20707 1.121298,0.54726 1.862296,0.9584 1.646661,0.91366 -0.731578,-0.15178 0.622377,0.51495 1.960311,0.96532 0.69003,0.23228 4.53616,1.96081 8.546957,3.84117 4.010797,1.88038 7.316863,3.3489 7.346814,3.2634 0.03372,-0.0963 0.138236,-0.0859 0.274444,0.0271 z m -0.564137,-0.2479 c 0,-0.0432 0.03529,-0.0784 0.07841,-0.0784 0.04313,0 0.07842,0.0353 0.07842,0.0784 0,0.0432 -0.03529,0.0784 -0.07842,0.0784 -0.04313,0 -0.07841,-0.0353 -0.07841,-0.0784 z m -0.313651,-0.15683 c 0,-0.0432 0.03529,-0.0784 0.07842,-0.0784 0.04313,0 0.07841,0.0353 0.07841,0.0784 0,0.0432 -0.03528,0.0784 -0.07841,0.0784 -0.04313,0 -0.07842,-0.0353 -0.07842,-0.0784 z m -0.313649,-0.15682 c 0,-0.0432 0.03529,-0.0784 0.07841,-0.0784 0.04313,0 0.07842,0.0353 0.07842,0.0784 0,0.0432 -0.03529,0.0784 -0.07842,0.0784 -0.04313,0 -0.07841,-0.0353 -0.07841,-0.0784 z m -0.31365,-0.15683 c 0,-0.0432 0.03529,-0.0784 0.07842,-0.0784 0.04313,0 0.07841,0.0353 0.07841,0.0784 0,0.0432 -0.03529,0.0784 -0.07841,0.0784 -0.04313,0 -0.07842,-0.0353 -0.07842,-0.0784 z m -0.31365,-0.15682 c 0,-0.0432 0.03529,-0.0784 0.07842,-0.0784 0.04313,0 0.07842,0.0353 0.07842,0.0784 0,0.0432 -0.03529,0.0784 -0.07842,0.0784 -0.04313,0 -0.07842,-0.0353 -0.07842,-0.0784 z m -0.94095,-0.39206 c -0.301887,-0.16528 -0.478316,-0.30051 -0.392062,-0.30051 0.08626,0 0.403824,0.13523 0.705712,0.30051 0.301888,0.16528 0.478316,0.3005 0.392062,0.3005 -0.08626,0 -0.403824,-0.13522 -0.705712,-0.3005 z m 5.188291,-0.21434 c 0.03593,-0.0316 1.143068,-0.7367 2.460288,-1.56684 1.317219,-0.83012 2.569857,-1.62392 2.783642,-1.764 0.213783,-0.14008 0.388697,-0.21761 0.388697,-0.17229 0,0.10672 -5.404518,3.56064 -5.571423,3.56064 -0.0696,0 -0.09714,-0.0259 -0.0612,-0.0575 z M 28.6661,248.69862 c 0,-0.0432 0.03529,-0.0784 0.07842,-0.0784 0.04313,0 0.07841,0.0353 0.07841,0.0784 0,0.0432 -0.03529,0.0784 -0.07841,0.0784 -0.04313,0 -0.07842,-0.0353 -0.07842,-0.0784 z m -0.547777,-0.23344 c -0.05494,-0.0889 0.008,-0.1152 0.147569,-0.0616 0.271687,0.10425 0.321396,0.21666 0.09582,0.21666 -0.08116,0 -0.190685,-0.0697 -0.243382,-0.15503 z m -1.177297,-0.55069 c -0.388141,-0.20784 -0.63514,-0.37789 -0.548887,-0.37789 0.08626,0 0.474396,0.17005 0.862537,0.37789 0.388141,0.20784 0.635141,0.37789 0.548887,0.37789 -0.08626,0 -0.474395,-0.17005 -0.862537,-0.37789 z m -0.940949,-0.47048 c 0,-0.0432 0.03529,-0.0784 0.07842,-0.0784 0.04313,0 0.07841,0.0353 0.07841,0.0784 0,0.0432 -0.03528,0.0784 -0.07841,0.0784 -0.04313,0 -0.07842,-0.0353 -0.07842,-0.0784 z m -0.31365,-0.15681 c 0,-0.0432 0.03529,-0.0784 0.07841,-0.0784 0.04313,0 0.07842,0.0353 0.07842,0.0784 0,0.0432 -0.03528,0.0784 -0.07842,0.0784 -0.04313,0 -0.07841,-0.0353 -0.07841,-0.0784 z m -1.411424,-0.62731 c -0.560649,-0.29351 -0.948791,-0.53366 -0.862537,-0.53366 0.08626,0 0.615538,0.24015 1.176187,0.53366 0.560649,0.29353 0.948791,0.53368 0.862537,0.53368 -0.08626,0 -0.615537,-0.24015 -1.176187,-0.53368 z m -1.254599,-0.6273 c 0,-0.0432 0.03529,-0.0784 0.07841,-0.0784 0.04313,0 0.07841,0.0353 0.07841,0.0784 0,0.0432 -0.03529,0.0784 -0.07841,0.0784 -0.04313,0 -0.07841,-0.0353 -0.07841,-0.0784 z m -0.31365,-0.15682 c 0,-0.0432 0.03528,-0.0784 0.07841,-0.0784 0.04313,0 0.07841,0.0353 0.07841,0.0784 0,0.0432 -0.03529,0.0784 -0.07841,0.0784 -0.04313,0 -0.07841,-0.0353 -0.07841,-0.0784 z m -0.313651,-0.15683 c 0,-0.0432 0.03529,-0.0784 0.07842,-0.0784 0.04313,0 0.07841,0.0353 0.07841,0.0784 0,0.0432 -0.03529,0.0784 -0.07841,0.0784 -0.04313,0 -0.07842,-0.0353 -0.07842,-0.0784 z m -0.940948,-0.39206 c -0.301888,-0.16528 -0.478317,-0.3005 -0.392062,-0.3005 0.08626,0 0.403824,0.13522 0.705711,0.3005 0.301888,0.16528 0.478317,0.30051 0.392062,0.30051 -0.08626,0 -0.403823,-0.13523 -0.705711,-0.30051 z m 18.975813,-0.0674 c 0,-0.0432 0.141142,-0.15396 0.313649,-0.24628 0.172507,-0.0923 0.31365,-0.13258 0.31365,-0.0894 0,0.0432 -0.141143,0.15395 -0.31365,0.24627 -0.172507,0.0923 -0.313649,0.13257 -0.313649,0.0894 z m -19.916763,-0.40311 c -0.141344,-0.0913 -0.160687,-0.15298 -0.04846,-0.15443 0.102721,-0.001 0.230392,0.0682 0.283699,0.15443 0.120332,0.1947 0.06605,0.1947 -0.235238,0 z m -0.627299,-0.31365 c -0.141346,-0.0913 -0.160688,-0.15298 -0.04846,-0.15442 0.102732,-10e-4 0.230391,0.0682 0.283698,0.15442 0.120333,0.1947 0.06604,0.1947 -0.235237,0 z m 21.48501,0.0784 c 0,-0.0432 0.03529,-0.0784 0.07842,-0.0784 0.04313,0 0.07841,0.0353 0.07841,0.0784 0,0.0432 -0.03528,0.0784 -0.07841,0.0784 -0.04313,0 -0.07842,-0.0353 -0.07842,-0.0784 z m 0.31365,-0.15683 c 0,-0.0432 0.03529,-0.0784 0.07841,-0.0784 0.04313,0 0.07842,0.0353 0.07842,0.0784 0,0.0432 -0.03529,0.0784 -0.07842,0.0784 -0.04313,0 -0.07841,-0.0353 -0.07841,-0.0784 z m -23.053259,-0.47044 c -0.388142,-0.20784 -0.635141,-0.37789 -0.548888,-0.37789 0.08626,0 0.474395,0.17005 0.862537,0.37789 0.388142,0.20784 0.635141,0.37789 0.548888,0.37789 -0.08626,0 -0.474395,-0.17005 -0.862537,-0.37789 z m 23.523733,0.15683 c 0,-0.0432 0.03529,-0.0784 0.07842,-0.0784 0.04313,0 0.07841,0.0353 0.07841,0.0784 0,0.0432 -0.03529,0.0784 -0.07841,0.0784 -0.04313,0 -0.07842,-0.0353 -0.07842,-0.0784 z m -24.464683,-0.62731 c 0,-0.0432 0.03528,-0.0784 0.07841,-0.0784 0.04313,0 0.07842,0.0353 0.07842,0.0784 0,0.0432 -0.03529,0.0784 -0.07842,0.0784 -0.04313,0 -0.07841,-0.0353 -0.07841,-0.0784 z m -0.313649,-0.15682 c 0,-0.0432 0.03529,-0.0784 0.07841,-0.0784 0.04313,0 0.07841,0.0353 0.07841,0.0784 0,0.0432 -0.03528,0.0784 -0.07841,0.0784 -0.04313,0 -0.07841,-0.0353 -0.07841,-0.0784 z m -0.31365,-0.15683 c 0,-0.0432 0.03529,-0.0784 0.07841,-0.0784 0.04313,0 0.07841,0.0353 0.07841,0.0784 0,0.0432 -0.03529,0.0784 -0.07841,0.0784 -0.04313,0 -0.07841,-0.0353 -0.07841,-0.0784 z m -0.714944,-0.3223 c -0.287038,-0.22996 -0.282033,-0.23323 0.08764,-0.0572 0.480045,0.22862 0.569014,0.30106 0.36976,0.30106 -0.08414,0 -0.289975,-0.10976 -0.457405,-0.24388 z m -1.166956,-0.54023 c -0.301886,-0.16527 -0.478315,-0.3005 -0.392062,-0.3005 0.08626,0 0.403825,0.13523 0.705713,0.3005 0.301888,0.16528 0.478315,0.3005 0.392062,0.3005 -0.08626,0 -0.403824,-0.13522 -0.705713,-0.3005 z m -0.784124,-0.39206 c 0,-0.0432 0.03529,-0.0784 0.07841,-0.0784 0.04313,0 0.07842,0.0353 0.07842,0.0784 0,0.0432 -0.03529,0.0784 -0.07842,0.0784 -0.04313,0 -0.07841,-0.0353 -0.07841,-0.0784 z m -0.784123,-0.31365 c -0.215635,-0.12327 -0.321491,-0.22412 -0.235238,-0.22412 0.08626,0 0.333253,0.10087 0.548887,0.22412 0.215634,0.12326 0.321491,0.22412 0.235237,0.22412 -0.08626,0 -0.333252,-0.10088 -0.548886,-0.22412 z m -0.6273,-0.31365 c 0,-0.0432 0.03529,-0.0784 0.07841,-0.0784 0.04313,0 0.07841,0.0353 0.07841,0.0784 0,0.0432 -0.03529,0.0784 -0.07841,0.0784 -0.04313,0 -0.07841,-0.0353 -0.07841,-0.0784 z m -0.31365,-0.15683 c 0,-0.0432 0.03529,-0.0784 0.07841,-0.0784 0.04313,0 0.07841,0.0353 0.07841,0.0784 0,0.0432 -0.03529,0.0784 -0.07841,0.0784 -0.04313,0 -0.07841,-0.0353 -0.07841,-0.0784 z m -0.313649,-0.15683 c 0,-0.0432 0.03529,-0.0784 0.07841,-0.0784 0.04313,0 0.07841,0.0353 0.07841,0.0784 0,0.0432 -0.03529,0.0784 -0.07841,0.0784 -0.04313,0 -0.07841,-0.0353 -0.07841,-0.0784 z m -0.313651,-0.15682 c 0,-0.0432 0.03529,-0.0784 0.07841,-0.0784 0.04313,0 0.07841,0.0353 0.07841,0.0784 0,0.0432 -0.03529,0.0784 -0.07841,0.0784 -0.04313,0 -0.07841,-0.0353 -0.07841,-0.0784 z m -0.547776,-0.23343 c -0.05494,-0.0889 0.008,-0.1152 0.147569,-0.0616 0.271687,0.10425 0.321395,0.21666 0.09582,0.21666 -0.08116,0 -0.190686,-0.0697 -0.243383,-0.15502 z m -0.497723,-0.26318 c 0.0575,-0.0575 0.151597,-0.0575 0.209099,0 0.0575,0.0575 0.01046,0.10458 -0.104554,0.10458 -0.115004,0 -0.162052,-0.047 -0.104554,-0.10458 z m 20.334961,-3.11036 c 0,-0.0432 0.03529,-0.0784 0.07842,-0.0784 0.04313,0 0.07841,0.0353 0.07841,0.0784 0,0.0432 -0.03528,0.0784 -0.07841,0.0784 -0.04313,0 -0.07842,-0.0353 -0.07842,-0.0784 z m 0.52275,-0.18296 c 0.0575,-0.0575 0.151597,-0.0575 0.209101,0 0.0575,0.0575 0.01046,0.10459 -0.104555,0.10459 -0.115005,0 -0.162051,-0.047 -0.104554,-0.10459 z m 0.627299,-0.15683 c 0.0575,-0.0575 0.151598,-0.0575 0.209101,0 0.0575,0.0575 0.01046,0.10459 -0.104554,0.10459 -0.115005,0 -0.162052,-0.047 -0.104555,-0.10459 z m 0.6273,-0.15682 c 0.0575,-0.0575 0.151597,-0.0575 0.209099,0 0.0575,0.0575 0.01046,0.10459 -0.104554,0.10459 -0.115004,0 -0.162052,-0.0471 -0.104554,-0.10459 z m 0.545621,-0.1594 c 0.113206,-0.0453 0.248468,-0.0397 0.30058,0.0124 0.05211,0.0521 -0.04051,0.0892 -0.205833,0.0823 -0.182691,-0.008 -0.219853,-0.0446 -0.09475,-0.0947 z m 0.627299,-0.15683 c 0.113207,-0.0453 0.248469,-0.0397 0.30058,0.0124 0.05211,0.0521 -0.04051,0.0892 -0.205832,0.0823 -0.182692,-0.008 -0.219852,-0.0446 -0.09475,-0.0947 z m 4.263676,0.0288 c 0,-0.0432 0.03529,-0.0784 0.07841,-0.0784 0.04313,0 0.07841,0.0353 0.07841,0.0784 0,0.0432 -0.03529,0.0784 -0.07841,0.0784 -0.04313,0 -0.07841,-0.0353 -0.07841,-0.0784 z m -3.636377,-0.18554 c 0.113208,-0.0453 0.24847,-0.0397 0.300582,0.0124 0.05211,0.0521 -0.04051,0.0892 -0.205834,0.0824 -0.182692,-0.008 -0.219852,-0.0446 -0.09475,-0.0947 z m 3.950026,0.0287 c 0,-0.0432 0.03529,-0.0784 0.07842,-0.0784 0.04313,0 0.07841,0.0353 0.07841,0.0784 0,0.0432 -0.03529,0.0784 -0.07841,0.0784 -0.04313,0 -0.07842,-0.0353 -0.07842,-0.0784 z m -3.322726,-0.18555 c 0.113208,-0.0453 0.248469,-0.0397 0.300581,0.0124 0.05211,0.0521 -0.04051,0.0892 -0.205834,0.0823 -0.182691,-0.008 -0.219851,-0.0446 -0.09475,-0.0947 z m 3.636377,0.0302 c 0,-0.10728 0.960225,-0.58336 1.031966,-0.51162 0.03403,0.034 -0.184244,0.17923 -0.485049,0.32267 -0.300804,0.14344 -0.546917,0.22847 -0.546917,0.18895 z m -3.084223,-0.18444 c 0.0575,-0.0575 0.151598,-0.0575 0.2091,0 0.0575,0.0575 0.01046,0.10459 -0.104554,0.10459 -0.115005,0 -0.162053,-0.0471 -0.104555,-0.10459 z m 0.6273,-0.15683 c 0.0575,-0.0575 0.151597,-0.0575 0.209099,0 0.0575,0.0575 0.01046,0.10459 -0.104554,0.10459 -0.115005,0 -0.162053,-0.0471 -0.104554,-0.10459 z m 0.627299,-0.15682 c 0.0575,-0.0575 0.151598,-0.0575 0.2091,0 0.0575,0.0575 0.01046,0.10459 -0.104555,0.10459 -0.115004,0 -0.162051,-0.0471 -0.104554,-0.10459 z m 0.6273,-0.15683 c 0.0575,-0.0575 0.151597,-0.0575 0.2091,0 0.0575,0.0575 0.01046,0.10459 -0.104554,0.10459 -0.115005,0 -0.162052,-0.047 -0.104554,-0.10459 z m 2.456924,0.0262 c 0,-0.0432 0.03529,-0.0784 0.07841,-0.0784 0.04313,0 0.07841,0.0353 0.07841,0.0784 0,0.0432 -0.03529,0.0784 -0.07841,0.0784 -0.04313,0 -0.07841,-0.0353 -0.07841,-0.0784 z m -1.8819,-0.15684 c 0,-0.0432 0.03529,-0.0784 0.07841,-0.0784 0.04313,0 0.07841,0.0353 0.07841,0.0784 0,0.0432 -0.03529,0.0784 -0.07841,0.0784 -0.04313,0 -0.07841,-0.0353 -0.07841,-0.0784 z m 1.725074,-0.47048 c 0,-0.0432 0.03529,-0.0784 0.07841,-0.0784 0.04313,0 0.07842,0.0353 0.07842,0.0784 0,0.0432 -0.03529,0.0784 -0.07842,0.0784 -0.04313,0 -0.07841,-0.0353 -0.07841,-0.0784 z m 0.6273,-0.15681 c 0,-0.0432 0.03529,-0.0784 0.07841,-0.0784 0.04313,0 0.07842,0.0353 0.07842,0.0784 0,0.0432 -0.03529,0.0784 -0.07842,0.0784 -0.04313,0 -0.07841,-0.0353 -0.07841,-0.0784 z m 0.627299,-0.15683 c 0,-0.0432 0.03529,-0.0784 0.07842,-0.0784 0.04313,0 0.07841,0.0353 0.07841,0.0784 0,0.0432 -0.03529,0.0784 -0.07841,0.0784 -0.04313,0 -0.07842,-0.0353 -0.07842,-0.0784 z m 0.627299,-0.15682 c 0,-0.0432 0.03529,-0.0784 0.07842,-0.0784 0.04313,0 0.07841,0.0353 0.07841,0.0784 0,0.0432 -0.03529,0.0784 -0.07841,0.0784 -0.04313,0 -0.07842,-0.0353 -0.07842,-0.0784 z m 0.627301,-0.15683 c 0,-0.0432 0.03529,-0.0784 0.07841,-0.0784 0.04313,0 0.07841,0.0353 0.07841,0.0784 0,0.0432 -0.03529,0.0784 -0.07841,0.0784 -0.04313,0 -0.07841,-0.0353 -0.07841,-0.0784 z M 14.23821,233.95711 c 0,-0.0432 0.03529,-0.0784 0.07842,-0.0784 0.04313,0 0.07841,0.0353 0.07841,0.0784 0,0.0432 -0.03529,0.0784 -0.07841,0.0784 -0.04313,0 -0.07842,-0.0353 -0.07842,-0.0784 z m 29.639905,0 c 0,-0.0432 0.03529,-0.0784 0.07842,-0.0784 0.04313,0 0.07841,0.0353 0.07841,0.0784 0,0.0432 -0.03529,0.0784 -0.07841,0.0784 -0.04313,0 -0.07842,-0.0353 -0.07842,-0.0784 z m 0.627299,-0.15683 c 0,-0.0432 0.03529,-0.0784 0.07841,-0.0784 0.04313,0 0.07841,0.0353 0.07841,0.0784 0,0.0432 -0.03529,0.0784 -0.07841,0.0784 -0.04313,0 -0.07841,-0.0353 -0.07841,-0.0784 z m 0.679575,-0.18296 c 0.0575,-0.0575 0.151597,-0.0575 0.2091,0 0.0575,0.0575 0.01046,0.10459 -0.104554,0.10459 -0.115005,0 -0.162052,-0.0471 -0.104554,-0.10459 z m 0.627299,-0.15683 c 0.0575,-0.0575 0.151597,-0.0575 0.2091,0 0.0575,0.0575 0.01046,0.10459 -0.104555,0.10459 -0.115004,0 -0.162051,-0.0471 -0.104554,-0.10459 z m 0.627299,-0.15682 c 0.0575,-0.0575 0.151599,-0.0575 0.209101,0 0.0575,0.0575 0.01046,0.10459 -0.104554,0.10459 -0.115005,0 -0.162053,-0.047 -0.104554,-0.10459 z m 0.575026,-0.13068 c 0,-0.0432 0.03529,-0.0784 0.07841,-0.0784 0.04313,0 0.07842,0.0353 0.07842,0.0784 0,0.0432 -0.03529,0.0784 -0.07842,0.0784 -0.04313,0 -0.07841,-0.0353 -0.07841,-0.0784 z m 0.6273,-0.15684 c 0,-0.0432 0.03529,-0.0784 0.07841,-0.0784 0.04313,0 0.07842,0.0353 0.07842,0.0784 0,0.0432 -0.03529,0.0784 -0.07842,0.0784 -0.04313,0 -0.07841,-0.0353 -0.07841,-0.0784 z m 0.522748,-0.18296 c 0.0575,-0.0575 0.151598,-0.0575 0.209101,0 0.0575,0.0575 0.01046,0.10459 -0.104554,0.10459 -0.115006,0 -0.162053,-0.0471 -0.104555,-0.10459 z m 0.627301,-0.15681 c 0.0575,-0.0575 0.151597,-0.0575 0.209099,0 0.0575,0.0575 0.01046,0.10458 -0.104554,0.10458 -0.115005,0 -0.162053,-0.0471 -0.104554,-0.10458 z m 0.627299,-0.15683 c 0.0575,-0.0575 0.151598,-0.0575 0.2091,0 0.0575,0.0575 0.01046,0.10459 -0.104555,0.10459 -0.115005,0 -0.162053,-0.047 -0.104554,-0.10459 z m 0.6273,-0.15683 c 0.0575,-0.0575 0.151597,-0.0575 0.209099,0 0.0575,0.0575 0.01046,0.10459 -0.104554,0.10459 -0.115004,0 -0.162052,-0.0471 -0.104554,-0.10459 z m 0.627299,-0.15682 c 0.0575,-0.0575 0.151597,-0.0575 0.209101,0 0.0575,0.0575 0.01046,0.10459 -0.104555,0.10459 -0.115005,0 -0.162051,-0.047 -0.104554,-0.10459 z m 0.627299,-0.15683 c 0.0575,-0.0575 0.151598,-0.0575 0.209101,0 0.0575,0.0575 0.01046,0.10459 -0.104554,0.10459 -0.115005,0 -0.162052,-0.047 -0.104554,-0.10459 z m 0.6273,-0.15682 c 0.0575,-0.0575 0.151597,-0.0575 0.2091,0 0.0575,0.0575 0.01046,0.10459 -0.104554,0.10459 -0.115004,0 -0.162052,-0.047 -0.104554,-0.10459 z m 0.545621,-0.1594 c 0.113208,-0.0453 0.248468,-0.0397 0.30058,0.0124 0.05211,0.0521 -0.04051,0.0892 -0.205833,0.0823 -0.182691,-0.008 -0.219853,-0.0446 -0.09475,-0.0947 z m 0.627299,-0.15683 c 0.113207,-0.0453 0.248469,-0.0397 0.30058,0.0124 0.05211,0.0521 -0.04051,0.0892 -0.205831,0.0823 -0.182693,-0.008 -0.219853,-0.0446 -0.09475,-0.0947 z m 0.552153,-0.15425 c 0.0575,-0.0575 0.151598,-0.0575 0.209101,0 0.0575,0.0575 0.01046,0.10459 -0.104554,0.10459 -0.115005,0 -0.162053,-0.0471 -0.104554,-0.10459 z m 0.6273,-0.15683 c 0.0575,-0.0575 0.151597,-0.0575 0.2091,0 0.0575,0.0575 0.01046,0.10459 -0.104554,0.10459 -0.115005,0 -0.162053,-0.047 -0.104554,-0.10459 z m 0.6273,-0.15682 c 0.0575,-0.0575 0.151598,-0.0575 0.2091,0 0.0575,0.0575 0.01046,0.10459 -0.104554,0.10459 -0.115005,0 -0.162053,-0.0471 -0.104555,-0.10459 z m 0.6273,-0.15683 c 0.0575,-0.0575 0.151597,-0.0575 0.209099,0 0.0575,0.0575 0.01046,0.10459 -0.104554,0.10459 -0.115005,0 -0.162053,-0.0471 -0.104554,-0.10459 z m 0.627299,-0.15682 c 0.0575,-0.0575 0.151598,-0.0575 0.2091,0 0.0575,0.0575 0.01046,0.10459 -0.104555,0.10459 -0.115004,0 -0.162051,-0.0471 -0.104554,-0.10459 z m 1.254599,-0.31365 c 0.0575,-0.0575 0.151598,-0.0575 0.209101,0 0.0575,0.0575 0.01046,0.10458 -0.104555,0.10458 -0.115004,0 -0.162051,-0.047 -0.104554,-0.10458 z m 0.545621,-0.15941 c 0.113208,-0.0453 0.248469,-0.0397 0.300581,0.0124 0.05211,0.0521 -0.04052,0.0892 -0.205833,0.0823 -0.182692,-0.008 -0.219853,-0.0446 -0.09475,-0.0947 z m 0.627299,-0.15681 c 0.113208,-0.0453 0.24847,-0.0397 0.30058,0.0124 0.05211,0.0521 -0.04051,0.0892 -0.205832,0.0824 -0.182692,-0.008 -0.219853,-0.0446 -0.09475,-0.0947 z m -48.429488,-0.28494 c 0,-0.0432 0.03529,-0.0784 0.07841,-0.0784 0.04313,0 0.07842,0.0353 0.07842,0.0784 0,0.0432 -0.03529,0.0784 -0.07842,0.0784 -0.04313,0 -0.07841,-0.0353 -0.07841,-0.0784 z m -0.8699153,-0.90175 c -0.6199198,-0.6665 -0.6199198,-0.6665 0.046581,-0.0466 0.6198433,0.57652 0.7385713,0.71309 0.6199209,0.71309 -0.02563,0 -0.3255497,-0.29992 -0.6665053,-0.66651 z M 32.20533,249.20832 c -0.03618,-0.19406 -0.07131,-2.11713 -0.07809,-4.27347 -0.01612,-5.12896 -2.400903,-6.58015 -8.268428,-5.03147 -1.824595,0.48159 -3.406764,0.87562 -3.515931,0.87562 -0.109165,0 -1.905953,-1.74665 -3.99286,-3.88143 -4.095353,-4.18929 -3.795893,-3.96133 -6.5646917,-4.99734 -0.3754011,-0.14047 -0.3039529,2.47145 0.1510879,5.52334 0.2830258,1.89821 0.2830258,1.89821 2.1747898,2.79014 1.880905,0.8868 20.048672,9.31721 20.121672,9.33707 0.02103,0.006 0.0087,-0.14837 -0.02755,-0.34246 z m 6.897918,-3.8925 c 3.445587,-2.18092 8.240697,-5.21197 10.6558,-6.73568 9.165238,-5.78243 8.102213,-4.95567 8.130261,-6.32324 0.01355,-0.66066 -0.02372,-1.20117 -0.08281,-1.20112 -0.05909,3e-5 -2.035085,0.48872 -4.391097,1.08594 -4.158412,1.05413 -4.806794,1.22248 -8.566405,2.22437 -1.574075,0.41946 -2.933516,1.02731 -3.63691,1.62617 -0.305836,0.26039 -8.46082,4.78674 -8.624114,4.78674 -0.272456,0 -0.324686,0.65207 -0.294233,3.67341 0.04064,4.03242 0.110515,4.99535 0.355625,4.90129 0.104048,-0.0399 3.008291,-1.85698 6.453878,-4.03788 z m -27.369389,-0.0246 c -0.253205,-3.47545 -0.244115,-3.3944 -0.396165,-3.53227 -0.07119,-0.0646 -0.0824,-0.0351 -0.02491,0.0652 0.05749,0.10043 0.04141,0.20631 -0.03575,0.23524 -0.135947,0.0509 0.186286,4.98338 0.376039,5.75601 0.230275,0.93763 0.261628,-0.0421 0.08079,-2.52425 z m 0.736803,-3.1955 c -0.05211,-0.0521 -0.187373,-0.0577 -0.300581,-0.0124 -0.125103,0.05 -0.08794,0.0873 0.09475,0.0947 0.16532,0.007 0.257944,-0.0302 0.205831,-0.0823 z m 1.140249,0.0163 c 0,-0.0432 -0.03529,-0.0784 -0.07842,-0.0784 -0.04313,0 -0.07841,0.0353 -0.07841,0.0784 0,0.0432 0.03529,0.0784 0.07841,0.0784 0.04313,0 0.07842,-0.0353 0.07842,-0.0784 z m -1.019362,-0.46396 c -0.550787,-0.25248 -0.817757,-0.30692 -0.897145,-0.18298 -0.0743,0.116 0.09931,0.2068 0.506768,0.26503 0.340883,0.0487 0.668147,0.13693 0.727252,0.19603 0.05911,0.059 0.183913,0.10155 0.277356,0.0945 0.09344,-0.007 -0.182963,-0.17481 -0.614231,-0.37249 z m 16.927357,-4.6446 c 4.749305,-1.21403 9.834811,-2.51723 11.301124,-2.89599 1.466311,-0.37875 6.124011,-1.57193 10.350442,-2.6515 4.226431,-1.07959 8.115953,-2.07785 8.643383,-2.21838 0.835924,-0.22272 1.739046,-3.47255 1.129334,-4.06384 -0.02726,-0.0264 -4.918986,1.11029 -10.87049,2.52606 -5.951506,1.41577 -11.985343,2.8106 -13.408529,3.09961 -2.182424,0.44321 -2.980519,0.69159 -5.096809,1.58621 -4.102746,1.73435 -3.58869,1.59093 -4.54133,1.26711 -1.443714,-0.49073 -6.267783,0.72189 -6.403606,1.60969 -0.05886,0.38471 -0.06618,0.37807 -0.08772,-0.0795 -0.01895,-0.40246 -0.09737,-0.50888 -0.404507,-0.54889 -0.242065,-0.0315 -1.987283,-1.53656 -4.785663,-4.12707 -4.999024,-4.62766 -7.0807453,-6.04545 -6.8529673,-4.66733 0.053621,0.32443 0.096356,0.73103 0.094973,0.90354 -0.00202,0.25384 11.9156353,12.391 12.2285893,12.4538 0.03777,0.008 3.954476,-0.97952 8.703782,-2.19355 z m -8.820303,0.87431 c 0.0033,-0.25876 0.03835,-0.34564 0.0781,-0.19305 0.03975,0.15258 0.03715,0.3643 -0.0058,0.47048 -0.04296,0.10616 -0.0755,-0.0187 -0.0723,-0.27743 z m -0.03057,-0.6273 c 0,-0.0432 0.03529,-0.0784 0.07841,-0.0784 0.04313,0 0.07841,0.0353 0.07841,0.0784 0,0.0432 -0.03529,0.0784 -0.07841,0.0784 -0.04313,0 -0.07841,-0.0353 -0.07841,-0.0784 z m -0.132064,-1.17619 c 0,-0.21563 0.03559,-0.30385 0.07911,-0.19603 0.04351,0.10785 0.04351,0.28424 0,0.39207 -0.04351,0.10785 -0.07911,0.0196 -0.07911,-0.19604 z m 2.766677,-2.45955 c 2.314464,-0.52584 2.618494,-0.56236 3.21491,-0.3862 1.017912,0.30064 1.529895,0.34898 1.811746,0.17105 0.206532,-0.13038 0.179705,-0.14439 -0.133674,-0.0697 -0.509521,0.12136 -0.08867,-0.15142 0.470474,-0.30495 0.316801,-0.087 0.346905,-0.0728 0.156824,0.0742 -0.209099,0.16169 -0.209099,0.17329 0,0.10437 1.244265,-0.40994 2.794537,-1.12563 2.715447,-1.2536 -0.05591,-0.0904 -0.01965,-0.10998 0.08457,-0.0457 0.210473,0.13009 0.844139,-0.0341 0.745792,-0.19321 -0.03614,-0.0585 0.08634,-0.11574 0.272168,-0.12724 0.185833,-0.0115 0.655451,-0.13042 1.043592,-0.26425 1.31505,-0.45343 3.053035,-0.94046 4.312685,-1.20855 0.69003,-0.14686 2.913022,-0.66453 4.939984,-1.15038 2.026961,-0.48585 6.472947,-1.54619 9.879968,-2.35631 8.507603,-2.02294 9.169528,-2.18898 8.979352,-2.25237 -0.09158,-0.0305 -2.014016,0.3775 -4.272089,0.90673 -2.258072,0.52924 -4.134326,0.9335 -4.169452,0.89836 -0.03512,-0.0351 0.641943,-0.23047 1.504602,-0.43413 0.972376,-0.22954 1.493224,-0.41885 1.370483,-0.49812 -0.110042,-0.0711 0.04583,-0.0873 0.350901,-0.0364 0.433638,0.0722 0.499495,0.0535 0.31365,-0.089 -0.194393,-0.149 -0.177424,-0.16416 0.09774,-0.0874 0.291859,0.0814 4.51965,-0.87373 4.71008,-1.06414 0.03995,-0.04 -0.443209,-0.30755 -1.073761,-0.59458 -0.630546,-0.28704 -1.665469,-0.77969 -2.299831,-1.09479 -1.153387,-0.57288 -1.153387,-0.57288 -4.223041,0.66021 -1.688311,0.6782 -3.093576,1.20917 -3.122812,1.17993 -0.07067,-0.0706 6.025537,-2.57357 6.578134,-2.70074 0.237198,-0.0547 0.431268,-0.16635 0.431268,-0.24835 0,-0.082 0.07057,-0.10548 0.156825,-0.0522 0.08626,0.0533 0.156825,0.0244 0.156825,-0.0642 0,-0.0886 0.105859,-0.12054 0.235238,-0.0709 0.12938,0.0497 0.235237,0.008 0.235237,-0.0926 0,-0.10054 0.08148,-0.1325 0.181056,-0.071 0.105723,0.0653 0.138726,0.0434 0.07932,-0.0527 -0.05596,-0.0905 0.01381,-0.20897 0.155036,-0.26317 0.141234,-0.0542 0.213103,-0.14222 0.159716,-0.1956 -0.05341,-0.0534 -0.188854,-0.0209 -0.301041,0.0722 -0.237327,0.19696 -3.611623,1.57445 -19.435342,7.93409 -13.731417,5.51874 -9.884509,5.54237 -22.638965,-0.13903 -11.9419965,-5.31949 -10.8406618,-4.8545 -10.8406618,-4.57704 0,0.22958 1.4966986,1.02991 3.6235137,1.93761 1.3690711,0.58431 1.5025641,0.69164 5.7128721,4.59303 2.371075,2.19711 4.339625,3.909 4.374556,3.80421 0.03493,-0.10481 0.135751,-0.19053 0.224045,-0.19053 0.08829,0 0.119914,0.10583 0.07027,0.23524 -0.135933,0.35424 0.306171,0.30636 3.161799,-0.34242 z m 4.108857,-0.44171 c 0,-0.0432 0.03529,-0.0784 0.07842,-0.0784 0.04313,0 0.07841,0.0353 0.07841,0.0784 0,0.0432 -0.03529,0.0784 -0.07841,0.0784 -0.04313,0 -0.07842,-0.0353 -0.07842,-0.0784 z m -0.313651,-0.15683 c 0,-0.0432 0.03529,-0.0784 0.07842,-0.0784 0.04313,0 0.07842,0.0353 0.07842,0.0784 0,0.0432 -0.03529,0.0784 -0.07842,0.0784 -0.04313,0 -0.07842,-0.0353 -0.07842,-0.0784 z m -2.117135,-0.3664 c -0.435663,-0.26561 -6.552404,-3.07525 -9.931265,-4.56179 -1.845124,-0.81177 -2.428177,-1.11315 -2.334599,-1.20672 0.08392,-0.0839 3.31529,1.28105 6.694927,2.82803 1.24867,0.57156 2.36383,1.00331 2.478137,0.95945 0.128137,-0.0492 0.164775,-0.0101 0.09555,0.10189 -0.07567,0.12243 -0.02453,0.148 0.156826,0.0784 0.148009,-0.0568 0.23147,-0.0424 0.185468,0.032 -0.108906,0.17622 1.462973,0.83031 1.677193,0.69791 0.09004,-0.0557 0.119426,-0.0296 0.06533,0.0579 -0.129637,0.20976 1.063809,0.74377 1.315115,0.58846 0.134393,-0.0831 0.154927,-0.056 0.06631,0.0874 -0.09398,0.15208 -0.05629,0.18006 0.14074,0.10448 0.150128,-0.0576 0.229381,-0.039 0.179252,0.0422 -0.04943,0.08 0.03513,0.21816 0.187886,0.30709 0.244287,0.14222 0.230518,0.1622 -0.11432,0.16589 -0.215633,0.002 -0.603776,-0.1249 -0.862537,-0.28265 z m 4.155859,0.20958 c 0,-0.0432 0.03529,-0.0784 0.07841,-0.0784 0.04313,0 0.07842,0.0353 0.07842,0.0784 0,0.0432 -0.03529,0.0784 -0.07842,0.0784 -0.04313,0 -0.07841,-0.0353 -0.07841,-0.0784 z m -2.666023,-0.15683 c 0,-0.0432 0.03529,-0.0784 0.07842,-0.0784 0.04313,0 0.07841,0.0353 0.07841,0.0784 0,0.0432 -0.03529,0.0784 -0.07841,0.0784 -0.04313,0 -0.07842,-0.0353 -0.07842,-0.0784 z m 3.031948,-0.0261 c 0.0575,-0.0575 0.151598,-0.0575 0.2091,0 0.0575,0.0575 0.01046,0.10459 -0.104554,0.10459 -0.115005,0 -0.162053,-0.0471 -0.104555,-0.10459 z m -5.332046,-0.15682 c 0.0575,-0.0575 0.151597,-0.0575 0.209099,0 0.0575,0.0575 0.01046,0.10458 -0.104554,0.10458 -0.115004,0 -0.162052,-0.0471 -0.104554,-0.10458 z m 5.750245,0.0262 c 0,-0.0432 0.03529,-0.0784 0.07842,-0.0784 0.04313,0 0.07842,0.0353 0.07842,0.0784 0,0.0432 -0.03529,0.0784 -0.07842,0.0784 -0.04313,0 -0.07842,-0.0353 -0.07842,-0.0784 z m 0.365925,-0.18296 c 0.0575,-0.0575 0.151598,-0.0575 0.2091,0 0.0575,0.0575 0.01046,0.10459 -0.104554,0.10459 -0.115004,0 -0.162052,-0.047 -0.104555,-0.10459 z m 0.4182,-0.13069 c 0,-0.0432 0.03529,-0.0784 0.07842,-0.0784 0.04313,0 0.07841,0.0353 0.07841,0.0784 0,0.0432 -0.03529,0.0784 -0.07841,0.0784 -0.04313,0 -0.07842,-0.0353 -0.07842,-0.0784 z m -7.684419,-0.15683 c 0,-0.0432 0.03529,-0.0784 0.07841,-0.0784 0.04313,0 0.07841,0.0352 0.07841,0.0784 0,0.0432 -0.03529,0.0784 -0.07841,0.0784 -0.04313,0 -0.07841,-0.0353 -0.07841,-0.0784 z m 2.038724,0 c 0,-0.0432 0.03529,-0.0784 0.07841,-0.0784 0.04313,0 0.07842,0.0352 0.07842,0.0784 0,0.0432 -0.03529,0.0784 -0.07842,0.0784 -0.04313,0 -0.07841,-0.0353 -0.07841,-0.0784 z m 5.959346,0 c 0,-0.0432 0.03529,-0.0784 0.07841,-0.0784 0.04313,0 0.07842,0.0352 0.07842,0.0784 0,0.0432 -0.03529,0.0784 -0.07842,0.0784 -0.04313,0 -0.07841,-0.0353 -0.07841,-0.0784 z m -8.311721,-0.15682 c 0,-0.0432 0.03528,-0.0784 0.07841,-0.0784 0.04313,0 0.07841,0.0353 0.07841,0.0784 0,0.0432 -0.03529,0.0784 -0.07841,0.0784 -0.04313,0 -0.07841,-0.0353 -0.07841,-0.0784 z m 2.038724,0 c 0,-0.0432 0.03528,-0.0784 0.07842,-0.0784 0.04313,0 0.07842,0.0353 0.07842,0.0784 0,0.0432 -0.03529,0.0784 -0.07842,0.0784 -0.04313,0 -0.07842,-0.0353 -0.07842,-0.0784 z m -2.352373,-0.15683 c 0,-0.0432 0.03529,-0.0784 0.07842,-0.0784 0.04313,0 0.07841,0.0353 0.07841,0.0784 0,0.0432 -0.03529,0.0784 -0.07841,0.0784 -0.04313,0 -0.07842,-0.0353 -0.07842,-0.0784 z m 1.934173,-0.0261 c 0.0575,-0.0575 0.151598,-0.0575 0.209101,0 0.0575,0.0575 0.01046,0.10459 -0.104554,0.10459 -0.115005,0 -0.162053,-0.0471 -0.104555,-0.10459 z m 7.475321,0.0261 c 0,-0.0432 0.03529,-0.0784 0.07841,-0.0784 0.04313,0 0.07841,0.0353 0.07841,0.0784 0,0.0432 -0.03529,0.0784 -0.07841,0.0784 -0.04313,0 -0.07841,-0.0353 -0.07841,-0.0784 z m -9.72314,-0.15689 c 0,-0.0432 0.03529,-0.0784 0.07841,-0.0784 0.04313,0 0.07841,0.0353 0.07841,0.0784 0,0.0432 -0.03529,0.0784 -0.07841,0.0784 -0.04313,0 -0.07841,-0.0353 -0.07841,-0.0784 z m 10.507268,-0.15682 c 0,-0.0432 0.03529,-0.0784 0.07841,-0.0784 0.04313,0 0.07841,0.0353 0.07841,0.0784 0,0.0432 -0.03529,0.0784 -0.07841,0.0784 -0.04313,0 -0.07841,-0.0353 -0.07841,-0.0784 z m 0.470475,-0.15682 c 0,-0.0432 0.03529,-0.0784 0.07842,-0.0784 0.04313,0 0.07841,0.0353 0.07841,0.0784 0,0.0432 -0.03529,0.0784 -0.07841,0.0784 -0.04313,0 -0.07842,-0.0353 -0.07842,-0.0784 z M 23.02041,231.13433 c 0,-0.0432 0.03529,-0.0784 0.07841,-0.0784 0.04313,0 0.07841,0.0353 0.07841,0.0784 0,0.0432 -0.03529,0.0784 -0.07841,0.0784 -0.04313,0 -0.07841,-0.0352 -0.07841,-0.0784 z m 10.350443,0 c 0,-0.0432 0.03528,-0.0784 0.07841,-0.0784 0.04313,0 0.07842,0.0353 0.07842,0.0784 0,0.0432 -0.03529,0.0784 -0.07842,0.0784 -0.04313,0 -0.07841,-0.0352 -0.07841,-0.0784 z m -12.702816,-0.15692 c 0,-0.0432 0.03529,-0.0784 0.07841,-0.0784 0.04313,0 0.07841,0.0353 0.07841,0.0784 0,0.0432 -0.03529,0.0784 -0.07841,0.0784 -0.04313,0 -0.07841,-0.0353 -0.07841,-0.0784 z m 2.038722,0 c 0,-0.0432 0.03528,-0.0784 0.07841,-0.0784 0.04313,0 0.07841,0.0353 0.07841,0.0784 0,0.0432 -0.03529,0.0784 -0.07841,0.0784 -0.04313,0 -0.07841,-0.0353 -0.07841,-0.0784 z m 11.030018,-0.0261 c 0.0575,-0.0575 0.151598,-0.0575 0.2091,0 0.0575,0.0575 0.01046,0.10458 -0.104554,0.10458 -0.115005,0 -0.162053,-0.047 -0.104554,-0.10458 z m 0.4182,-0.13069 c 0,-0.0432 0.03528,-0.0784 0.07841,-0.0784 0.04313,0 0.07842,0.0353 0.07842,0.0784 0,0.0432 -0.03529,0.0784 -0.07842,0.0784 -0.04313,0 -0.07841,-0.0353 -0.07841,-0.0784 z m -12.545992,-0.31366 c 0,-0.0432 0.03529,-0.0784 0.07841,-0.0784 0.04313,0 0.07842,0.0353 0.07842,0.0784 0,0.0432 -0.03529,0.0784 -0.07842,0.0784 -0.04313,0 -0.07841,-0.0353 -0.07841,-0.0784 z m -4.077447,-0.94095 c 0,-0.0432 0.03529,-0.0784 0.07842,-0.0784 0.04313,0 0.07841,0.0353 0.07841,0.0784 0,0.0432 -0.03529,0.0784 -0.07841,0.0784 -0.04313,0 -0.07842,-0.0353 -0.07842,-0.0784 z m 21.955486,-0.15681 c 0,-0.0432 0.03529,-0.0784 0.07841,-0.0784 0.04313,0 0.07841,0.0353 0.07841,0.0784 0,0.0432 -0.03529,0.0784 -0.07841,0.0784 -0.04313,0 -0.07841,-0.0353 -0.07841,-0.0784 z m 0.261658,-0.2136 c -0.34036,-0.13405 0.981707,-0.5947 2.012302,-0.70113 0.345015,-0.0357 0.486157,-0.0297 0.31365,0.0133 -0.31365,0.078 -0.31365,0.078 0,0.21771 0.257311,0.1146 0.238936,0.12534 -0.102294,0.0597 -0.622382,-0.11965 -1.549657,0.0863 -1.144959,0.25425 0.191017,0.0793 0.0702,0.0946 -0.32099,0.0407 -0.467595,-0.0644 -0.56741,-0.0442 -0.392062,0.0797 0.265127,0.18727 0.06795,0.20657 -0.365641,0.0358 z m -23.408306,-0.20274 c -0.06933,-0.11224 -0.04302,-0.13849 0.06915,-0.0692 0.180781,0.11179 0.242712,0.25022 0.111898,0.25022 -0.03803,0 -0.119512,-0.0815 -0.181056,-0.18105 z m 24.999141,-0.0829 c 0.113208,-0.0453 0.24847,-0.0397 0.300581,0.0124 0.05211,0.0521 -0.04051,0.0892 -0.205832,0.0823 -0.182693,-0.008 -0.219853,-0.0446 -0.09475,-0.0947 z M 39.663476,228.624 c 0.608342,-0.33057 11.004858,-4.47401 11.067866,-4.411 0.02962,0.0297 -0.776874,0.39262 -1.792223,0.80666 -1.015349,0.41404 -3.524149,1.44756 -5.575112,2.29671 -3.390511,1.40375 -4.782826,1.89574 -3.700531,1.30763 z m -24.170662,0.001 c 0,-0.0432 0.03529,-0.0784 0.07841,-0.0784 0.04313,0 0.07841,0.0353 0.07841,0.0784 0,0.0432 -0.03529,0.0784 -0.07841,0.0784 -0.04313,0 -0.07841,-0.0353 -0.07841,-0.0784 z m 27.258127,-0.0288 c 0.113208,-0.0453 0.24847,-0.0397 0.300582,0.0124 0.05211,0.0521 -0.04051,0.0892 -0.205833,0.0823 -0.182692,-0.008 -0.219853,-0.0446 -0.09475,-0.0947 z m 0.6273,-0.15681 c 0.113208,-0.0453 0.248469,-0.0397 0.300581,0.0124 0.05211,0.0521 -0.04051,0.0892 -0.205832,0.0823 -0.182692,-0.008 -0.219853,-0.0447 -0.09475,-0.0947 z m -29.062374,-0.19483 c -0.493059,-0.11834 -1.856984,-0.95059 -1.743632,-1.06394 0.03601,-0.036 0.619658,0.21779 1.296993,0.564 1.242278,0.63496 1.30589,0.70617 0.446639,0.49994 z m 28.359924,0.0407 c 0.0575,-0.0575 0.151597,-0.0575 0.209099,0 0.0575,0.0575 0.01046,0.10459 -0.104554,0.10459 -0.115005,0 -0.162053,-0.047 -0.104554,-0.10459 z m 1.329744,-0.002 c 0.113208,-0.0453 0.248469,-0.0397 0.300581,0.0124 0.05211,0.0521 -0.04051,0.0892 -0.205833,0.0823 -0.182692,-0.008 -0.219852,-0.0446 -0.09475,-0.0947 z m 0.784125,-0.15683 c 0.113208,-0.0453 0.248469,-0.0397 0.300581,0.0124 0.05211,0.0521 -0.04051,0.0892 -0.205834,0.0823 -0.182691,-0.008 -0.219851,-0.0446 -0.09475,-0.0947 z m 0.627299,-0.15683 c 0.113208,-0.0453 0.24847,-0.0397 0.300581,0.0124 0.05211,0.0521 -0.04051,0.0892 -0.205833,0.0823 -0.182692,-0.008 -0.219853,-0.0447 -0.09475,-0.0947 z m 0.6273,-0.15681 c 0.113208,-0.0453 0.248469,-0.0397 0.300581,0.0124 0.05211,0.0521 -0.04051,0.0892 -0.205833,0.0824 -0.182692,-0.008 -0.219853,-0.0446 -0.09475,-0.0947 z m 0.617497,-0.15356 c 0.107815,-0.0435 0.284245,-0.0435 0.392063,0 0.107816,0.0435 0.0196,0.079 -0.196032,0.079 -0.215634,0 -0.303848,-0.0357 -0.196031,-0.079 z m 0.793926,-0.16009 c 0.113208,-0.0453 0.248471,-0.0397 0.300581,0.0124 0.05211,0.0521 -0.04051,0.0892 -0.205832,0.0823 -0.182692,-0.008 -0.219852,-0.0446 -0.09475,-0.0947 z m 0.6273,-0.15683 c 0.113208,-0.0453 0.24847,-0.0397 0.300582,0.0124 0.05211,0.0521 -0.04051,0.0892 -0.205834,0.0823 -0.182691,-0.008 -0.219853,-0.0446 -0.09475,-0.0947 z m 0.617498,-0.15356 c 0.107815,-0.0435 0.284245,-0.0435 0.392063,0 0.107816,0.0435 0.0196,0.0791 -0.196032,0.0791 -0.215634,0 -0.303848,-0.0357 -0.196031,-0.0791 z m 0.793926,-0.16009 c 0.113208,-0.0453 0.248469,-0.0397 0.300581,0.0124 0.05211,0.0521 -0.04051,0.0892 -0.205832,0.0823 -0.182692,-0.008 -0.219853,-0.0446 -0.09475,-0.0947 z m 0.627299,-0.15682 c 0.113208,-0.0453 0.24847,-0.0397 0.300582,0.0124 0.05211,0.0521 -0.04051,0.0892 -0.205833,0.0823 -0.182691,-0.008 -0.219853,-0.0447 -0.09475,-0.0947 z m 1.205592,-0.29594 c 0.431269,-0.12 0.889982,-0.21324 1.019362,-0.20719 0.129381,0.006 -0.117619,0.1092 -0.548888,0.22918 -0.431268,0.12001 -0.88998,0.21325 -1.019361,0.2072 -0.129381,-0.006 0.117618,-0.1092 0.548887,-0.22919 z m 1.460432,-0.33137 c 0.113208,-0.0453 0.248469,-0.0397 0.300581,0.0124 0.05211,0.0521 -0.04051,0.0892 -0.205833,0.0823 -0.182691,-0.008 -0.219852,-0.0446 -0.09475,-0.0947 z m 0.81353,-0.44175 c 0,-0.0432 0.03528,-0.0784 0.07841,-0.0784 0.04313,0 0.07841,0.0353 0.07841,0.0784 0,0.0432 -0.03529,0.0784 -0.07841,0.0784 -0.04313,0 -0.07841,-0.0353 -0.07841,-0.0784 z m 0.627298,-0.15683 c 0,-0.0432 0.03529,-0.0784 0.07842,-0.0784 0.04313,0 0.07841,0.0353 0.07841,0.0784 0,0.0432 -0.03529,0.0784 -0.07841,0.0784 -0.04313,0 -0.07842,-0.0353 -0.07842,-0.0784 z m 0.627299,-0.15682 c 0,-0.0432 0.03529,-0.0784 0.07841,-0.0784 0.04313,0 0.07842,0.0353 0.07842,0.0784 0,0.0432 -0.03529,0.0784 -0.07842,0.0784 -0.04313,0 -0.07841,-0.0353 -0.07841,-0.0784 z m 0.627301,-0.15683 c 0,-0.0432 0.03529,-0.0784 0.07841,-0.0784 0.04313,0 0.07842,0.0353 0.07842,0.0784 0,0.0432 -0.03529,0.0784 -0.07842,0.0784 -0.04313,0 -0.07841,-0.0353 -0.07841,-0.0784 z m -16.701851,2.97014 c 5.692743,-2.29188 12.555792,-5.0517 15.251221,-6.13294 4.900777,-1.96589 4.900777,-1.96589 4.901589,-3.00851 4.46e-4,-0.57345 0.04607,-1.72608 0.101394,-2.5614 0.100585,-1.51876 0.100585,-1.51876 -0.902554,-1.31142 -0.551723,0.11403 -1.532417,0.28723 -2.17932,0.38489 -1.22525,0.18499 -4.523824,0.80298 -8.546956,1.60128 -1.587928,0.31509 -3.524525,0.8674 -5.959346,1.69959 -1.983836,0.67804 -5.759395,1.95505 -8.390133,2.83779 -2.630736,0.88274 -4.874319,1.6886 -4.985738,1.79081 -0.217694,0.19968 -0.290149,6.81914 -0.08902,8.13335 0.110503,0.7221 -0.03299,0.75657 -0.163071,0.0391 -0.04493,-0.24776 -0.130231,-2.15159 -0.189564,-4.23074 -0.121337,-4.25194 -2.171851,-6.00251 -6.137166,-5.23943 -0.813532,0.15656 -1.561232,0.23729 -1.661557,0.17943 -0.100326,-0.0578 -1.191611,-0.84341 -2.425084,-1.74563 -3.323791,-2.43117 -12.0437267,-5.80628 -11.8977084,-4.6051 0.048819,0.4016 0.2102847,2.08044 0.3588165,3.73077 0.2700573,3.0006 0.2700573,3.0006 1.4585296,3.57234 3.8676333,1.86059 20.5193183,9.14497 20.7875003,9.09362 0.174754,-0.0335 4.975433,-1.936 10.668176,-4.22788 z m -10.428855,-4.53838 c 0,-0.0432 0.03529,-0.0784 0.07841,-0.0784 0.04313,0 0.07842,0.0353 0.07842,0.0784 0,0.0432 -0.03529,0.0784 -0.07842,0.0784 -0.04313,0 -0.07841,-0.0353 -0.07841,-0.0784 z m 0.365924,-0.18297 c 0.0575,-0.0575 0.151597,-0.0575 0.2091,0 0.0575,0.0575 0.01046,0.10459 -0.104554,0.10459 -0.115004,0 -0.162052,-0.047 -0.104554,-0.10459 z m 0.470475,-0.15683 c 0.0575,-0.0575 0.151597,-0.0575 0.2091,0 0.0575,0.0575 0.01046,0.10458 -0.104554,0.10458 -0.115005,0 -0.162052,-0.0471 -0.104554,-0.10458 z m 0.470474,-0.15682 c 0.0575,-0.0575 0.151598,-0.0575 0.2091,0 0.0575,0.0575 0.01046,0.10459 -0.104554,0.10459 -0.115005,0 -0.162053,-0.047 -0.104555,-0.10459 z m 0.470475,-0.15682 c 0.0575,-0.0575 0.151598,-0.0575 0.2091,0 0.0575,0.0575 0.01046,0.10458 -0.104555,0.10458 -0.115005,0 -0.162052,-0.0471 -0.104554,-0.10458 z m 0.470475,-0.15683 c 0.0575,-0.0575 0.151598,-0.0575 0.2091,0 0.0575,0.0575 0.01046,0.10459 -0.104555,0.10459 -0.115005,0 -0.162053,-0.047 -0.104554,-0.10459 z m 0.4182,-0.13069 c 0,-0.0432 0.03529,-0.0784 0.07841,-0.0784 0.04313,0 0.07842,0.0353 0.07842,0.0784 0,0.0432 -0.03529,0.0784 -0.07842,0.0784 -0.04313,0 -0.07841,-0.0353 -0.07841,-0.0784 z m 0.365924,-0.18296 c 0.0575,-0.0575 0.151598,-0.0575 0.209101,0 0.0575,0.0575 0.01046,0.10459 -0.104555,0.10459 -0.115004,0 -0.162051,-0.0471 -0.104554,-0.10459 z m 0.575025,-0.13069 c 0,-0.0432 0.03529,-0.0784 0.07841,-0.0784 0.04313,0 0.07841,0.0353 0.07841,0.0784 0,0.0432 -0.03529,0.0784 -0.07841,0.0784 -0.04313,0 -0.07841,-0.0353 -0.07841,-0.0784 z m 0.365925,-0.18296 c 0.0575,-0.0575 0.151597,-0.0575 0.209099,0 0.0575,0.0575 0.01046,0.10459 -0.104554,0.10459 -0.115005,0 -0.162053,-0.0471 -0.104554,-0.10459 z m 0.470475,-0.15683 c 0.0575,-0.0575 0.151597,-0.0575 0.209099,0 0.0575,0.0575 0.01046,0.10459 -0.104554,0.10459 -0.115005,0 -0.162053,-0.0471 -0.104554,-0.10459 z m 0.575024,-0.13069 c 0,-0.0432 0.03528,-0.0784 0.07841,-0.0784 0.04313,0 0.07842,0.0353 0.07842,0.0784 0,0.0432 -0.03529,0.0784 -0.07842,0.0784 -0.04313,0 -0.07841,-0.0353 -0.07841,-0.0784 z m 0.365924,-0.18296 c 0.0575,-0.0575 0.151599,-0.0575 0.209101,0 0.0575,0.0575 0.01046,0.10459 -0.104554,0.10459 -0.115006,0 -0.162053,-0.047 -0.104555,-0.10459 z m 0.470475,-0.15681 c 0.0575,-0.0575 0.151597,-0.0575 0.209101,0 0.0575,0.0575 0.01046,0.10458 -0.104555,0.10458 -0.115005,0 -0.162052,-0.0471 -0.104554,-0.10458 z m 0.470475,-0.15684 c 0.0575,-0.0575 0.151597,-0.0575 0.2091,0 0.0575,0.0575 0.01046,0.10459 -0.104554,0.10459 -0.115004,0 -0.162051,-0.0471 -0.104554,-0.10459 z m 0.470475,-0.15681 c 0.0575,-0.0575 0.151597,-0.0575 0.2091,0 0.0575,0.0575 0.01046,0.10458 -0.104554,0.10458 -0.115005,0 -0.162052,-0.0471 -0.104554,-0.10458 z m 0.470475,-0.15683 c 0.0575,-0.0575 0.151597,-0.0575 0.209099,0 0.0575,0.0575 0.01046,0.10459 -0.104554,0.10459 -0.115005,0 -0.162053,-0.0471 -0.104554,-0.10459 z m 0.470474,-0.15683 c 0.0575,-0.0575 0.151598,-0.0575 0.2091,0 0.0575,0.0575 0.01046,0.10459 -0.104554,0.10459 -0.115005,0 -0.162053,-0.047 -0.104555,-0.10459 z m 0.470475,-0.15682 c 0.0575,-0.0575 0.151598,-0.0575 0.2091,0 0.0575,0.0575 0.01046,0.10459 -0.104555,0.10459 -0.115005,0 -0.162052,-0.047 -0.104554,-0.10459 z m 0.470474,-0.15683 c 0.0575,-0.0575 0.151597,-0.0575 0.209101,0 0.0575,0.0575 0.01046,0.10459 -0.104555,0.10459 -0.115005,0 -0.162053,-0.0471 -0.104554,-0.10459 z m 0.575026,-0.20909 c 0.129379,-0.0837 0.305807,-0.15203 0.392062,-0.15203 0.08626,0 0.05097,0.0684 -0.07842,0.15203 -0.129381,0.0836 -0.305808,0.15202 -0.392062,0.15202 -0.08626,0 -0.05097,-0.0684 0.07841,-0.15202 z m 0.679573,-0.26138 c 0.0575,-0.0575 0.151597,-0.0575 0.2091,0 0.0575,0.0575 0.01046,0.10458 -0.104554,0.10458 -0.115005,0 -0.162053,-0.0471 -0.104554,-0.10458 z m 0.470475,-0.15683 c 0.0575,-0.0575 0.151597,-0.0575 0.2091,0 0.0575,0.0575 0.01046,0.10459 -0.104554,0.10459 -0.115004,0 -0.162052,-0.0471 -0.104554,-0.10459 z m 0.470475,-0.15683 c 0.0575,-0.0575 0.151597,-0.0575 0.2091,0 0.0575,0.0575 0.01046,0.10459 -0.104554,0.10459 -0.115004,0 -0.162052,-0.0471 -0.104554,-0.10459 z m 0.470474,-0.15682 c 0.0575,-0.0575 0.151598,-0.0575 0.2091,0 0.0575,0.0575 0.01046,0.10459 -0.104554,0.10459 -0.115004,0 -0.162052,-0.047 -0.104555,-0.10459 z m 0.4182,-0.11235 c 0,-0.0331 0.14124,-0.097 0.313867,-0.14221 0.172626,-0.0452 0.274318,-0.0181 0.225981,0.0602 -0.08441,0.13658 -0.539848,0.20584 -0.539848,0.0821 z m 20.501588,10.15899 c -0.0521,-0.0521 -0.187372,-0.0577 -0.300582,-0.0124 -0.125107,0.05 -0.08794,0.0873 0.09475,0.0947 0.165324,0.007 0.257948,-0.0302 0.205835,-0.0823 z m 0.826595,-0.21891 c 0.286671,-0.18525 0.03906,-0.18525 -0.392058,0 -0.206813,0.0889 -0.233521,0.13772 -0.07842,0.14341 0.129386,0.004 0.341095,-0.0598 0.470476,-0.14341 z M 5.8010312,223.18343 c -0.1035083,-0.10346 -0.1908516,-0.54457 -0.1941062,-0.98015 -0.01137,-1.52196 -0.5862323,-6.85731 -0.7572786,-7.02836 -0.3276741,-0.32766 -0.3297062,-10e-4 -0.020355,3.26796 0.438905,4.6385 0.4553433,4.74312 0.7578319,4.82323 0.1435228,0.038 0.2927091,0.0774 0.3315225,0.0873 0.038821,0.0101 -0.014114,-0.0665 -0.1176176,-0.16999 z m 28.7397998,-2.15082 c 3.360483,-1.1272 6.465616,-2.18521 6.900296,-2.35114 1.879812,-0.71756 3.693316,-1.17317 7.603163,-1.91018 6.501036,-1.22543 10.414588,-2.03236 10.598961,-2.18537 0.0929,-0.0771 0.324024,-0.0996 0.513606,-0.05 0.205617,0.0538 0.344694,0.0182 0.344694,-0.0879 0,-0.11167 0.146248,-0.14139 0.392063,-0.0797 0.257314,0.0645 0.392063,0.0328 0.392063,-0.0924 0,-0.12984 0.13775,-0.15626 0.430946,-0.0827 0.237024,0.0595 0.374033,0.0513 0.304464,-0.0183 -0.06956,-0.0696 0.107006,-0.21746 0.392384,-0.32862 0.333485,-0.12992 0.378786,-0.1735 0.126808,-0.12199 -0.215634,0.0441 -9.636892,1.80927 -20.936125,3.92263 -11.299234,2.11338 -20.688652,3.87565 -20.865374,3.91618 -0.234801,0.0539 -1.983945,-1.12732 -6.496463,-4.38697 -3.396331,-2.45336 -6.2471565,-4.48465 -6.3351656,-4.51399 -0.088011,-0.0294 -0.2344502,-0.78415 -0.3254214,-1.67737 -0.2324439,-2.28229 -0.6518877,-2.48921 -0.4831334,-0.23834 0.1114143,1.48608 0.1295305,1.54161 0.6526986,2.00095 0.2959569,0.25987 0.5028971,0.50767 0.4598676,0.55071 -0.043027,0.0431 0.4662418,0.46772 1.1317124,0.94377 4.1178718,2.9457 5.2790118,4.15413 2.9851018,3.10666 -0.663749,-0.30308 -0.753211,-0.38354 -0.437828,-0.39377 0.218005,-0.007 0.553218,0.0971 0.744918,0.23129 0.191699,0.13427 0.348544,0.20453 0.348544,0.15613 0,-0.10122 -4.2400382,-3.28806 -4.7078646,-3.53844 -0.2080423,-0.11133 -0.3105318,-0.11321 -0.3105318,-0.006 0,0.0883 -0.1235004,0.15015 -0.2744444,0.13749 -0.5992248,-0.0502 -0.9945504,0.0334 -0.8978583,0.18981 0.065575,0.10605 -0.054521,0.12907 -0.3436007,0.0657 -0.2507254,-0.055 -0.3655484,-0.0406 -0.2634638,0.0328 0.1080742,0.0778 -0.084874,0.13607 -0.4791275,0.14461 -2.0565106,0.0445 -1.8828643,0.14037 4.5324551,2.49954 5.018396,1.84547 5.018396,1.84547 7.213945,3.46932 1.207552,0.8931 2.279203,1.59229 2.381447,1.55374 0.102249,-0.0386 0.210478,0.003 0.24052,0.0938 0.03652,0.10954 0.504573,0.0795 1.412333,-0.0905 1.340649,-0.25121 2.603062,-0.20518 2.804607,0.10222 0.241522,0.36845 2.667244,1.17646 3.396484,1.13139 0.430248,-0.0267 3.311145,-0.90753 6.85232,-2.09535 z m -6.779682,1.93708 c 0.127397,-0.12738 10.05806,-3.35688 10.12293,-3.29201 0.05912,0.059 -9.832304,3.38029 -10.067484,3.38029 -0.07905,0 -0.103992,-0.0397 -0.05544,-0.0883 z m -0.767848,-0.1731 c 0.0575,-0.0575 0.151597,-0.0575 0.209099,0 0.0575,0.0575 0.01046,0.10459 -0.104554,0.10459 -0.115004,0 -0.162051,-0.0471 -0.104554,-0.10459 z m -0.470475,-0.15681 c 0.0575,-0.0575 0.151598,-0.0575 0.209101,0 0.0575,0.0575 0.01046,0.10459 -0.104554,0.10459 -0.115004,0 -0.162052,-0.047 -0.104555,-0.10459 z m -0.365925,-0.13069 c 0,-0.0432 0.03529,-0.0784 0.07842,-0.0784 0.04313,0 0.07842,0.0353 0.07842,0.0784 0,0.0432 -0.03528,0.0784 -0.07842,0.0784 -0.04313,0 -0.07842,-0.0353 -0.07842,-0.0784 z m -0.470474,-0.15705 c 0,-0.0432 0.03529,-0.0784 0.07841,-0.0784 0.04313,0 0.07842,0.0353 0.07842,0.0784 0,0.0432 -0.03528,0.0784 -0.07842,0.0784 -0.04313,0 -0.07841,-0.0353 -0.07841,-0.0784 z m 0.2091,-1.43757 c 0.0575,-0.0575 0.151597,-0.0575 0.2091,0 0.0575,0.0575 0.01046,0.10459 -0.104554,0.10459 -0.115005,0 -0.162052,-0.0471 -0.104554,-0.10459 z m 0.627299,-0.15681 c 0.0575,-0.0575 0.151598,-0.0575 0.209101,0 0.0575,0.0575 0.01046,0.10458 -0.104554,0.10458 -0.115004,0 -0.162052,-0.0471 -0.104555,-0.10458 z m 0.94095,-0.15684 c 0.0575,-0.0575 0.151597,-0.0575 0.209099,0 0.0575,0.0575 0.01046,0.10459 -0.104554,0.10459 -0.115004,0 -0.162052,-0.0471 -0.104554,-0.10459 z m 0.888675,-0.13068 c 0,-0.0432 0.03529,-0.0784 0.07841,-0.0784 0.04313,0 0.07842,0.0353 0.07842,0.0784 0,0.0432 -0.03529,0.0784 -0.07842,0.0784 -0.04313,0 -0.07841,-0.0353 -0.07841,-0.0784 z m 0.679574,-0.18296 c 0.0575,-0.0575 0.151597,-0.0575 0.209099,0 0.0575,0.0575 0.01046,0.10459 -0.104554,0.10459 -0.115005,0 -0.162053,-0.047 -0.104554,-0.10459 z m 0.849468,-0.15614 c 0.107815,-0.0435 0.284245,-0.0435 0.392062,0 0.107815,0.0435 0.0196,0.0791 -0.196031,0.0791 -0.215634,0 -0.303848,-0.0357 -0.196031,-0.0791 z m 0.865521,-0.16164 c 0.152586,-0.0398 0.364299,-0.0372 0.470475,0.006 0.106174,0.043 -0.01867,0.0755 -0.277428,0.0723 -0.25876,-0.003 -0.345633,-0.0383 -0.193047,-0.0782 z m 0.794209,-0.1527 c 0.0575,-0.0575 0.151597,-0.0575 0.2091,0 0.0575,0.0575 0.01046,0.10459 -0.104554,0.10459 -0.115005,0 -0.162053,-0.047 -0.104554,-0.10459 z m 0.849469,-0.15614 c 0.107815,-0.0435 0.284244,-0.0435 0.392062,0 0.107815,0.0435 0.0196,0.0791 -0.196032,0.0791 -0.215633,0 -0.303848,-0.0357 -0.19603,-0.0791 z m 4.430303,0.0254 c 0,-0.0432 0.03529,-0.0784 0.07841,-0.0784 0.04313,0 0.07841,0.0353 0.07841,0.0784 0,0.0432 -0.03529,0.0784 -0.07841,0.0784 -0.04313,0 -0.07841,-0.0353 -0.07841,-0.0784 z m -3.606973,-0.14053 c 0,-0.0931 2.842904,-0.5974 2.921956,-0.51835 0.03752,0.0376 -0.561757,0.18348 -1.331728,0.32434 -1.518727,0.27786 -1.590228,0.28657 -1.590228,0.19401 z m 3.972898,-0.0424 c 0.0575,-0.0575 0.151597,-0.0575 0.209099,0 0.0575,0.0575 0.01046,0.10459 -0.104554,0.10459 -0.115005,0 -0.162053,-0.0471 -0.104554,-0.10459 z m 0.653436,-0.0461 c -0.380558,-0.15595 -0.07428,-0.30392 1.302271,-0.62918 1.208139,-0.28546 1.160279,-0.102 -0.05953,0.22822 -0.699368,0.18931 -0.967476,0.32361 -0.825582,0.41355 0.263021,0.16671 0.0011,0.1588 -0.417163,-0.0126 z m 0.862537,-0.0847 c 0,-0.0432 0.03529,-0.0784 0.07842,-0.0784 0.04313,0 0.07841,0.0353 0.07841,0.0784 0,0.0432 -0.03528,0.0784 -0.07841,0.0784 -0.04313,0 -0.07842,-0.0353 -0.07842,-0.0784 z m 0.470475,-0.15683 c 0,-0.0432 0.03529,-0.0784 0.07841,-0.0784 0.04313,0 0.07841,0.0353 0.07841,0.0784 0,0.0432 -0.03529,0.0784 -0.07841,0.0784 -0.04313,0 -0.07841,-0.0353 -0.07841,-0.0784 z m -2.623832,-0.34391 c 0.152585,-0.0398 0.364299,-0.0372 0.470475,0.006 0.106173,0.043 -0.01867,0.0755 -0.277429,0.0723 -0.258761,-0.003 -0.345632,-0.0383 -0.193046,-0.0782 z m 0.859552,-0.15201 c 0.107816,-0.0435 0.284245,-0.0435 0.392062,0 0.107816,0.0435 0.0196,0.0791 -0.19603,0.0791 -0.215635,0 -0.30385,-0.0357 -0.196032,-0.0791 z m 0.865522,-0.16164 c 0.152584,-0.0398 0.364299,-0.0371 0.470473,0.006 0.106174,0.043 -0.01867,0.0755 -0.277428,0.0723 -0.25876,-0.003 -0.345631,-0.0383 -0.193045,-0.0782 z m 0.898758,-0.12656 c 0,-0.0432 0.03529,-0.0784 0.07841,-0.0784 0.04313,0 0.07841,0.0353 0.07841,0.0784 0,0.0432 -0.03529,0.0784 -0.07841,0.0784 -0.04313,0 -0.07841,-0.0353 -0.07841,-0.0784 z m -28.01938,-1.59439 c 0.0575,-0.0575 0.151597,-0.0575 0.209099,0 0.0575,0.0575 0.01046,0.10459 -0.104554,0.10459 -0.115005,0 -0.162053,-0.047 -0.104554,-0.10459 z m -0.8364,-0.28751 c 0,-0.0432 0.03529,-0.0784 0.07841,-0.0784 0.04313,0 0.07841,0.0353 0.07841,0.0784 0,0.0432 -0.03529,0.0784 -0.07841,0.0784 -0.04313,0 -0.07841,-0.0353 -0.07841,-0.0784 z m 0.627299,-0.47048 c 0,-0.0432 0.03528,-0.0784 0.07841,-0.0784 0.04313,0 0.07841,0.0353 0.07841,0.0784 0,0.0432 -0.03529,0.0784 -0.07841,0.0784 -0.04313,0 -0.07841,-0.0353 -0.07841,-0.0784 z m -3.1364981,-0.47048 c 0,-0.0432 0.03529,-0.0784 0.078419,-0.0784 0.043128,0 0.078418,0.0353 0.078418,0.0784 0,0.0432 -0.03529,0.0784 -0.078418,0.0784 -0.043129,0 -0.078419,-0.0353 -0.078419,-0.0784 z m -0.3136491,-0.15681 c 0,-0.0432 0.035279,-0.0784 0.078407,-0.0784 0.043129,0 0.078419,0.0353 0.078419,0.0784 0,0.0432 -0.035279,0.0784 -0.078419,0.0784 -0.043128,0 -0.078407,-0.0353 -0.078407,-0.0784 z m 1.5682491,-0.78413 c 0,-0.0432 0.03529,-0.0784 0.078418,-0.0784 0.043128,0 0.078407,0.0353 0.078407,0.0784 0,0.0432 -0.03529,0.0784 -0.078407,0.0784 -0.043128,0 -0.078418,-0.0353 -0.078418,-0.0784 z m 16.8633431,5.57618 c 2.75755,-0.51263 9.777285,-1.82215 15.599409,-2.91003 5.822124,-1.08788 12.832089,-2.39685 15.5777,-2.90883 5.923214,-1.10449 5.212942,-0.75977 5.260756,-2.55328 0.03947,-1.48074 0.03947,-1.48074 -1.578086,-1.19564 -0.889666,0.15679 -1.829282,0.31846 -2.088044,0.35924 -0.258761,0.0408 -2.799324,0.47749 -5.645696,0.97046 -2.846371,0.49297 -5.528077,0.95298 -5.959346,1.02225 -0.431269,0.0693 -3.748115,0.63025 -7.37077,1.24665 -3.622655,0.61638 -7.362928,1.24619 -8.311719,1.39956 -9.775253,1.58027 -10.760075,1.78515 -10.979476,2.28426 -0.207918,0.47298 -0.207918,0.47298 -0.220712,0.0599 -0.0092,-0.2982 -0.110863,-0.43196 -0.365648,-0.48125 -0.358172,-0.0693 -11.029715,-7.10392 -11.6907795,-7.70649 -0.3601806,-0.32831 -0.3601806,-0.32831 -0.2794275,0.29401 0.04441,0.34227 0.1213873,0.9494 0.1710508,1.34916 0.049662,0.39977 0.2106907,0.83521 0.3578392,0.96762 0.7580411,0.68216 12.06426,8.72751 12.269314,8.73067 0.131947,0.002 2.496082,-0.41572 5.253635,-0.92834 z m 33.63427,0.38316 c 0,-0.0432 -0.03527,-0.0784 -0.07841,-0.0784 -0.04315,0 -0.07841,0.0353 -0.07841,0.0784 0,0.0432 0.03527,0.0784 0.07841,0.0784 0.04315,0 0.07841,-0.0353 0.07841,-0.0784 z M 13.29726,217.49046 c 0,-0.0432 -0.03528,-0.0784 -0.07841,-0.0784 -0.04313,0 -0.07841,0.0353 -0.07841,0.0784 0,0.0432 0.03529,0.0784 0.07841,0.0784 0.04313,0 0.07841,-0.0353 0.07841,-0.0784 z m 13.260514,-1.39943 c 19.407897,-3.28556 26.74828,-4.55377 26.61477,-4.59827 -0.169995,-0.0567 -33.173316,5.43805 -33.275254,5.53998 -0.17776,0.17777 1.190529,-0.0157 6.660484,-0.94171 z m 5.861069,-1.43479 c 6.949502,-1.16421 16.375732,-2.75627 20.947178,-3.53792 4.571445,-0.78164 8.578084,-1.45911 8.903637,-1.5055 0.325554,-0.0464 0.621163,-0.13166 0.656917,-0.18951 0.07912,-0.12801 -16.518647,-5.59906 -17.402122,-5.7362 -0.740928,-0.11501 -38.3254351,4.70526 -38.5663675,4.9462 -0.099955,0.1 -0.099876,0.15338 2.069e-4,0.15338 0.084469,0 2.9037889,1.83548 6.2651536,4.07887 3.560297,2.37615 6.205158,4.0431 6.335756,3.99316 0.1233,-0.0471 5.910139,-1.03827 12.859641,-2.20248 z m 30.382809,-0.64207 c -0.05749,-0.0575 -0.151595,-0.0575 -0.209101,0 -0.05749,0.0575 -0.01046,0.10459 0.104554,0.10459 0.115007,0 0.162051,-0.047 0.104555,-0.10459 z m -8.687729,-2.66432 c -0.106174,-0.043 -0.317889,-0.0455 -0.470474,-0.006 -0.152586,0.0398 -0.06571,0.0749 0.193046,0.0782 0.258761,0.003 0.383604,-0.0293 0.277428,-0.0723 z m 3.131971,-0.47276 c 1.357647,-0.23138 2.43861,-0.45053 2.40214,-0.487 -0.07148,-0.0715 -5.141135,0.74482 -5.249582,0.84526 -0.13401,0.12413 0.442605,0.0516 2.847442,-0.35826 z m 3.297852,-0.62502 c -0.106185,-0.043 -0.317889,-0.0455 -0.470473,-0.006 -0.152592,0.0398 -0.06572,0.0749 0.193043,0.0782 0.25876,0.003 0.383605,-0.0293 0.27743,-0.0723 z m 0.94095,-0.15683 c -0.106185,-0.043 -0.31789,-0.0455 -0.470475,-0.006 -0.15259,0.0398 -0.06571,0.0749 0.193045,0.0782 0.258759,0.003 0.383605,-0.0293 0.27743,-0.0723 z m 0.94095,-0.15682 c -0.106185,-0.043 -0.31789,-0.0456 -0.470475,-0.006 -0.152591,0.0398 -0.06571,0.0749 0.193044,0.0782 0.25876,0.003 0.383605,-0.0294 0.277431,-0.0723 z m 0.532829,-0.15852 c -0.05749,-0.0575 -0.151595,-0.0575 -0.209096,0 -0.05749,0.0575 -0.01046,0.10459 0.104543,0.10459 0.115006,0 0.162056,-0.047 0.104553,-0.10459 z M 7.0242649,209.02192 c 0,-0.0432 -0.03529,-0.0784 -0.078418,-0.0784 -0.043128,0 -0.078418,0.0353 -0.078418,0.0784 0,0.0432 0.03529,0.0784 0.078418,0.0784 0.043128,0 0.078418,-0.0353 0.078418,-0.0784 z"
       id="path30" /></g><g
     id="g33"
     transform="matrix(-1.4826397,2.6669179,-2.4712342,-0.88884514,779.90274,5.179429)"
     style="stroke-width:0.50209968;stroke-dasharray:none"><path
       style="opacity:1;fill:#d7c322;fill-opacity:1;stroke:#000000;stroke-width:0.50209968;stroke-linecap:square;stroke-linejoin:round;stroke-miterlimit:1.9;stroke-dasharray:none;stroke-opacity:1;paint-order:stroke fill markers"
       d="m 132.76673,182.63476 -2.25418,8.83271 1.01208,0.13801 2.07016,-8.87872 z"
       id="path32" /><path
       style="opacity:1;fill:#e7e8b3;fill-opacity:1;stroke:#000000;stroke-width:0.50209968;stroke-linecap:square;stroke-linejoin:round;stroke-miterlimit:1.9;stroke-dasharray:none;stroke-opacity:1;paint-order:stroke fill markers"
       d="m 133.57919,182.65465 -0.11609,-1.01062 -0.68989,0.92375 z"
       id="path33" /></g><path
     style="opacity:1;fill:#000000;fill-opacity:1;stroke:none;stroke-width:0.793001;stroke-linecap:square;stroke-linejoin:round;stroke-miterlimit:1.9;stroke-dasharray:none;stroke-opacity:1;paint-order:stroke fill markers"
     d="m 81.983135,173.84221 c 17.126365,18.92551 43.473095,22.1534 43.473095,22.1534 l -1.16574,-4.82666 c -25.40031,-7.27702 -32.289581,-14.8857 -38.664045,-22.27123 -1.337658,-1.54983 -3.64331,4.94449 -3.64331,4.94449 z"
     id="path31"
     sodipodi:nodetypes="cccsc" /><g
     id="g36"
     transform="matrix(0.86284646,0.2918104,-0.31770342,0.79252397,67.946923,7.5387776)"
     style="stroke-width:1.56716;stroke-dasharray:none"><path
       style="opacity:1;fill:#ffffff;fill-opacity:1;stroke:#161616;stroke-width:1.56716;stroke-linecap:square;stroke-linejoin:round;stroke-miterlimit:1.9;stroke-dasharray:none;stroke-opacity:1;paint-order:stroke fill markers"
       d="m 139.00687,170.68729 c 0.26131,10.88034 -8.51253,48.01936 -8.51253,48.01936 l 10.66406,-7.95127 c 0,0 -2.26388,-44.74605 -2.15153,-40.06809 z"
       id="path36"
       sodipodi:nodetypes="sccs" /><path
       style="fill:#ffffff;fill-opacity:1;stroke:#161616;stroke-width:1.56716;stroke-linecap:square;stroke-linejoin:round;stroke-miterlimit:1.9;stroke-dasharray:none;stroke-opacity:1;paint-order:stroke fill markers"
       d="m 140.23194,170.58278 c 0.26131,10.88034 -8.69962,46.02381 -8.69962,46.02381 l 10.85115,-4.86431 c 0,0 -2.26388,-45.83746 -2.15153,-41.1595 z"
       id="path36-8"
       sodipodi:nodetypes="sccs" /><path
       style="fill:#ffffff;fill-opacity:1;stroke:#161616;stroke-width:1.56716;stroke-linecap:square;stroke-linejoin:round;stroke-miterlimit:1.9;stroke-dasharray:none;stroke-opacity:1;paint-order:stroke fill markers"
       d="m 141.83407,169.9766 c 0.26131,10.88034 -8.60608,44.62064 -8.60608,44.62064 l 10.85115,-4.86431 c 0,0 -2.35742,-44.43429 -2.24507,-39.75633 z"
       id="path36-8-1"
       sodipodi:nodetypes="sccs" /><path
       style="opacity:1;fill:#3d3400;fill-opacity:1;stroke:#2b2300;stroke-width:1.56716;stroke-linecap:square;stroke-linejoin:round;stroke-miterlimit:1.9;stroke-dasharray:none;stroke-opacity:1;paint-order:stroke fill markers"
       d="m 138.89854,170.35792 -0.91297,46.04061 22.75337,-21.96181 7.29645,-39.03316 z"
       id="path34"
       sodipodi:nodetypes="ccccc" /><path
       style="opacity:1;fill:#545454;fill-opacity:1;stroke:#161616;stroke-width:1.56716;stroke-linecap:square;stroke-linejoin:round;stroke-miterlimit:1.9;stroke-dasharray:none;stroke-opacity:1;paint-order:stroke fill markers"
       d="m 146.76524,169.5193 12.57606,-8.13036 0.68785,-6.31639 -13.333,6.73402 z"
       id="path35"
       sodipodi:nodetypes="ccccc" /></g><g
     id="g45" /><path
     style="opacity:1;fill:#494949;fill-opacity:0.0680851;stroke:none;stroke-width:1.412;stroke-linecap:square;stroke-linejoin:round;stroke-miterlimit:1.9;stroke-dasharray:none;stroke-opacity:1;paint-order:stroke fill markers"
     d="m 63.750462,177.26651 4.443357,-13.75102 5.191709,-2.43215 -3.133733,7.39 11.178548,-7.06259 1.028986,3.83531 7.390003,-2.43215 c 0,0 0.140316,4.91108 0.374176,4.91108 0.233863,0 7.436776,-2.24506 7.436776,-2.24506 l -10.196332,8.27867 c 0,0 -1.216076,-4.02241 -1.122532,-4.30304 0.09354,-0.28063 1.777341,-4.30304 1.777341,-4.30304 l -11.365635,6.59487 -0.09355,-0.74835 3.507912,-7.48355 -15.341269,14.63969 z"
     id="path50" /><path
     style="fill:#494949;fill-opacity:0.0680851;stroke:none;stroke-width:1.412;stroke-linecap:square;stroke-linejoin:round;stroke-miterlimit:1.9;stroke-dasharray:none;stroke-opacity:1;paint-order:stroke fill markers"
     d="m 137.4942,177.97588 -4.44336,-13.75102 -5.1917,-2.43215 3.13373,7.39 -11.17855,-7.06259 -1.02899,3.83531 -7.39,-2.43215 c 0,0 -0.14031,4.91108 -0.37418,4.91108 -0.23386,0 -7.43677,-2.24506 -7.43677,-2.24506 l 10.19633,8.27867 c 0,0 1.21608,-4.02241 1.12253,-4.30304 -0.0935,-0.28063 -1.77734,-4.30304 -1.77734,-4.30304 l 11.36564,6.59487 0.0935,-0.74835 -3.50792,-7.48355 15.34127,14.63969 z"
     id="path50-9" /></svg>
